<svg width="39" height="29" viewBox="0 0 39 29" fill="none" xmlns="http://www.w3.org/2000/svg">
<path d="M28.35 28.35V28.485H20.7C20.49 27.765 20.235 26.94 19.935 26.01C19.665 25.08 19.365 24.09 19.035 23.04H9.315C8.715 25.14 8.16 26.955 7.65 28.485H0V28.395L9.225 0H19.125L28.35 28.35ZM14.085 5.13C13.785 6.66 13.35 8.52 12.78 10.71C12.21 12.9 11.61 15.135 10.98 17.415H17.415C16.755 15.135 16.14 12.9 15.57 10.71C15 8.52 14.565 6.66 14.265 5.13H14.085Z" fill="#DA4036"/>
<path d="M38.7176 28.485H31.5176V0H38.7176V28.485Z" fill="#DA4036"/>
</svg>
