<svg width="147" height="32" viewBox="0 0 147 32" fill="none" xmlns="http://www.w3.org/2000/svg">
<path d="M0.189578 23.965C1.57981 24.4321 3.09643 24.8058 4.73944 25.0861C6.41404 25.3353 8.07284 25.4599 9.71585 25.4599C11.9592 25.4599 13.618 25.3664 14.6923 25.1796C15.7981 24.9616 16.5248 24.6346 16.8724 24.1985C17.22 23.7625 17.3937 23.2019 17.3937 22.5168C17.3937 21.9251 17.2674 21.4579 17.0146 21.1153C16.7618 20.7728 16.2721 20.508 15.5454 20.3212C14.8186 20.1032 13.7444 19.9319 12.3225 19.8073L9.19451 19.527C6.85639 19.309 5.00801 18.8263 3.64937 18.0788C2.32233 17.3314 1.37444 16.3348 0.805705 15.0891C0.268568 13.8122 0 12.2861 0 10.511C0 8.39319 0.426549 6.68029 1.27965 5.37226C2.16434 4.06423 3.58618 3.11436 5.54514 2.52263C7.50411 1.89976 10.1108 1.58832 13.3652 1.58832C17.5991 1.58832 21.0905 2.13333 23.8394 3.22336L23.6972 9.57664L23.555 9.76351C20.427 8.67348 17.1568 8.12847 13.7444 8.12847C12.1014 8.12847 10.8375 8.2219 9.95282 8.40876C9.06813 8.56448 8.452 8.8292 8.10444 9.20292C7.75688 9.57664 7.5831 10.1061 7.5831 10.7912C7.5831 11.4764 7.69369 11.9903 7.91486 12.3328C8.16763 12.6754 8.65738 12.9401 9.38409 13.127C10.1108 13.2827 11.1693 13.4384 12.5595 13.5942L15.5454 13.9212C18.0731 14.2015 20.0162 14.6998 21.3749 15.4161C22.7335 16.1324 23.6656 17.0978 24.1711 18.3124C24.7083 19.4959 24.9768 20.944 24.9768 22.6569C24.9768 24.7436 24.5187 26.4876 23.6024 27.8891C22.7177 29.2594 21.2643 30.2871 19.2421 30.9723C17.22 31.6574 14.5185 32 11.1377 32C8.92594 32 6.93538 31.891 5.16599 31.673C3.3966 31.4238 1.6746 31.0968 0 30.692V24.1051L0.189578 23.965Z" fill="black"/>
<path d="M37.3194 31.5796H29.7363V0.186862H37.3194V12.9869H37.4616C37.9039 11.5854 38.7096 10.511 39.8787 9.76351C41.0793 8.98492 42.6433 8.59562 44.5707 8.59562C46.4033 8.59562 47.9041 8.89149 49.0732 9.48321C50.2738 10.0749 51.1585 11.1182 51.7273 12.6131C52.3276 14.0769 52.6278 16.1479 52.6278 18.8263V31.5796H45.0447L44.9973 20.2745C44.9973 18.5304 44.7287 17.2847 44.1916 16.5372C43.6544 15.7898 42.6434 15.4161 41.1583 15.4161C39.8313 15.4161 38.8676 15.7586 38.2673 16.4438C37.6669 17.129 37.351 18.2813 37.3194 19.9007V31.5796Z" fill="black"/>
<path d="M64.9407 0.373723C65.0355 1.49489 65.0829 2.4292 65.0829 3.17664C65.0829 3.61265 65.0671 4.06423 65.0355 4.53139C65.0355 4.9674 65.0039 5.4657 64.9407 6.02628C64.2772 6.15085 63.6294 6.24428 62.9975 6.30657C62.3656 6.36886 61.7337 6.4 61.1017 6.4C60.5014 6.4 59.8853 6.36886 59.2534 6.30657C58.653 6.24428 58.0369 6.15085 57.405 6.02628C57.3418 5.49684 57.2944 5.01411 57.2628 4.5781C57.2312 4.11095 57.2154 3.65937 57.2154 3.22336C57.2154 2.81849 57.2312 2.38248 57.2628 1.91533C57.2944 1.44818 57.3418 0.934307 57.405 0.373723C58.0369 0.218006 58.6688 0.124575 59.3008 0.0934322C59.9643 0.0311441 60.612 0 61.2439 0C61.8442 0 62.4446 0.0311441 63.0449 0.0934322C63.6768 0.124575 64.3088 0.218006 64.9407 0.373723ZM64.9407 31.5796H57.3576V8.8292H64.9407V31.5796Z" fill="black"/>
<path d="M98.8617 8.59562C101.2 8.59562 103.048 9.35864 104.407 10.8847C105.797 12.4107 106.492 15.0579 106.492 18.8263V31.5796H98.9091L98.8617 19.7606C98.8617 18.2346 98.6248 17.129 98.1508 16.4438C97.7085 15.7586 96.8238 15.4161 95.4967 15.4161C94.1697 15.4161 93.2692 15.7586 92.7952 16.4438C92.3529 17.129 92.1317 18.2346 92.1317 19.7606V31.5796H84.5486L84.5012 19.7606C84.5012 18.2346 84.2643 17.129 83.7903 16.4438C83.348 15.7586 82.4633 15.4161 81.1362 15.4161C79.8092 15.4161 78.9087 15.7586 78.4348 16.4438C77.9924 17.129 77.7712 18.2346 77.7712 19.7606V31.5796H70.1881V8.8292H77.3921L77.7712 12.9869H77.9134C78.3242 11.6165 79.0351 10.5421 80.0462 9.76351C81.0888 8.98492 82.5581 8.59562 84.4538 8.59562C86.3496 8.59562 87.8346 8.98492 88.9089 9.76351C90.0148 10.5421 90.7257 11.6165 91.0417 12.9869H91.1839C91.5946 11.5854 92.3845 10.511 93.5536 9.76351C94.7542 8.98492 96.5236 8.59562 98.8617 8.59562Z" fill="black"/>
<path d="M118.861 0.373723C118.956 1.49489 119.003 2.4292 119.003 3.17664C119.003 3.61265 118.987 4.06423 118.956 4.53139C118.956 4.9674 118.924 5.4657 118.861 6.02628C118.198 6.15085 117.55 6.24428 116.918 6.30657C116.286 6.36886 115.654 6.4 115.022 6.4C114.422 6.4 113.806 6.36886 113.174 6.30657C112.573 6.24428 111.957 6.15085 111.325 6.02628C111.262 5.49684 111.215 5.01411 111.183 4.5781C111.152 4.11095 111.136 3.65937 111.136 3.22336C111.136 2.81849 111.152 2.38248 111.183 1.91533C111.215 1.44818 111.262 0.934307 111.325 0.373723C111.957 0.218006 112.589 0.124575 113.221 0.0934322C113.885 0.0311441 114.532 0 115.164 0C115.765 0 116.365 0.0311441 116.965 0.0934322C117.597 0.124575 118.229 0.218006 118.861 0.373723ZM118.861 31.5796H111.278V8.8292H118.861V31.5796Z" fill="black"/>
<path d="M131.692 31.5796H124.109V8.8292H131.312L131.692 12.9869H131.834C132.276 11.5854 133.066 10.511 134.204 9.76351C135.341 8.98492 136.921 8.59562 138.943 8.59562C141.692 8.59562 143.714 9.35864 145.009 10.8847C146.336 12.4107 147 15.0579 147 18.8263V31.5796H139.417L139.369 20.2745C139.369 18.5304 139.101 17.2847 138.564 16.5372C138.027 15.7898 137.016 15.4161 135.531 15.4161C134.14 15.4161 133.161 15.7586 132.592 16.4438C132.023 17.0978 131.723 18.2346 131.692 19.854V31.5796Z" fill="black"/>
</svg>
