<svg width="299" height="102" viewBox="0 0 299 102" fill="none" xmlns="http://www.w3.org/2000/svg">
<path d="M51.4974 11.08V13.6C50.8574 13.7333 50.2308 13.8333 49.6174 13.9C49.0041 13.9667 48.2774 14 47.4374 14C46.3574 14 45.4441 13.9067 44.6974 13.72C43.9641 13.5333 43.3708 13.2067 42.9174 12.74C42.4774 12.26 42.1574 11.5867 41.9574 10.72C41.7574 9.85333 41.6574 8.74 41.6574 7.38C41.6574 6.07333 41.7574 5 41.9574 4.16C42.1574 3.32 42.4774 2.67333 42.9174 2.22C43.3708 1.75333 43.9641 1.43333 44.6974 1.26C45.4441 1.07333 46.3574 0.98 47.4374 0.98C48.2774 0.98 49.0041 1.01333 49.6174 1.08C50.2308 1.13333 50.8574 1.23333 51.4974 1.38V3.98L51.4374 4.02C50.8774 3.88667 50.3374 3.79333 49.8174 3.74C49.2974 3.67333 48.6574 3.64 47.8974 3.64C47.2841 3.64 46.7774 3.68667 46.3774 3.78C45.9908 3.86 45.6841 4.02667 45.4574 4.28C45.2308 4.53333 45.0708 4.90667 44.9774 5.4C44.8974 5.89333 44.8574 6.55333 44.8574 7.38C44.8574 8.24667 44.8974 8.94667 44.9774 9.48C45.0708 10 45.2308 10.3933 45.4574 10.66C45.6841 10.9267 45.9908 11.1067 46.3774 11.2C46.7774 11.2933 47.2841 11.34 47.8974 11.34C48.6441 11.34 49.2774 11.32 49.7974 11.28C50.3308 11.2267 50.8641 11.1333 51.3974 11L51.4974 11.08ZM52.4902 9.02C52.4902 7.23333 52.8702 5.94667 53.6302 5.16C54.3902 4.37333 55.6769 3.98 57.4902 3.98C58.7036 3.98 59.6769 4.15333 60.4102 4.5C61.1436 4.84667 61.6702 5.39333 61.9902 6.14C62.3236 6.87333 62.4902 7.83333 62.4902 9.02C62.4902 10.1933 62.3236 11.1467 61.9902 11.88C61.6702 12.6133 61.1436 13.1533 60.4102 13.5C59.6769 13.8333 58.7036 14 57.4902 14C55.6769 14 54.3902 13.6133 53.6302 12.84C52.8702 12.0533 52.4902 10.78 52.4902 9.02ZM57.4902 11.26C58.2636 11.26 58.7836 11.0933 59.0502 10.76C59.3302 10.4133 59.4702 9.81333 59.4702 8.96C59.4702 8.14667 59.3302 7.56667 59.0502 7.22C58.7836 6.86 58.2636 6.68 57.4902 6.68C56.7436 6.68 56.2236 6.86 55.9302 7.22C55.6502 7.56667 55.5102 8.14667 55.5102 8.96C55.5102 9.81333 55.6502 10.4133 55.9302 10.76C56.2236 11.0933 56.7436 11.26 57.4902 11.26ZM67.3863 13.82H64.1863V4.08H67.2263L67.3863 5.86H67.4463C67.633 5.26 67.9663 4.8 68.4463 4.48C68.9263 4.14667 69.593 3.98 70.4463 3.98C71.6063 3.98 72.4597 4.30667 73.0063 4.96C73.5663 5.61333 73.8463 6.74667 73.8463 8.36V13.82H70.6463L70.6263 8.98C70.6263 8.23333 70.513 7.7 70.2863 7.38C70.0597 7.06 69.633 6.9 69.0063 6.9C68.4197 6.9 68.0063 7.04667 67.7663 7.34C67.5263 7.62 67.3997 8.10667 67.3863 8.8V13.82ZM81.7179 10.56C82.3046 10.76 82.9446 10.92 83.6379 11.04C84.3446 11.1467 85.0446 11.2 85.7379 11.2C86.6846 11.2 87.3846 11.16 87.8379 11.08C88.3046 10.9867 88.6112 10.8467 88.7579 10.66C88.9046 10.4733 88.9779 10.2333 88.9779 9.94C88.9779 9.68667 88.9246 9.48667 88.8179 9.34C88.7112 9.19333 88.5046 9.08 88.1979 9C87.8912 8.90667 87.4379 8.83333 86.8379 8.78L85.5179 8.66C84.5312 8.56667 83.7512 8.36 83.1779 8.04C82.6179 7.72 82.2179 7.29333 81.9779 6.76C81.7512 6.21333 81.6379 5.56 81.6379 4.8C81.6379 3.89333 81.8179 3.16 82.1779 2.6C82.5512 2.04 83.1512 1.63333 83.9779 1.38C84.8046 1.11333 85.9046 0.98 87.2779 0.98C89.0646 0.98 90.5379 1.21333 91.6979 1.68L91.6379 4.4L91.5779 4.48C90.2579 4.01333 88.8779 3.78 87.4379 3.78C86.7446 3.78 86.2112 3.82 85.8379 3.9C85.4646 3.96667 85.2046 4.08 85.0579 4.24C84.9112 4.4 84.8379 4.62667 84.8379 4.92C84.8379 5.21333 84.8846 5.43333 84.9779 5.58C85.0846 5.72667 85.2912 5.84 85.5979 5.92C85.9046 5.98667 86.3512 6.05333 86.9379 6.12L88.1979 6.26C89.2646 6.38 90.0846 6.59333 90.6579 6.9C91.2312 7.20667 91.6246 7.62 91.8379 8.14C92.0646 8.64667 92.1779 9.26667 92.1779 10C92.1779 10.8933 91.9846 11.64 91.5979 12.24C91.2246 12.8267 90.6112 13.2667 89.7579 13.56C88.9046 13.8533 87.7646 14 86.3379 14C85.4046 14 84.5646 13.9533 83.8179 13.86C83.0712 13.7533 82.3446 13.6133 81.6379 13.44V10.62L81.7179 10.56ZM97.3863 13.82H94.1863V0.379999H97.3863V5.86H97.4463C97.633 5.26 97.973 4.8 98.4663 4.48C98.973 4.14667 99.633 3.98 100.446 3.98C101.22 3.98 101.853 4.10667 102.346 4.36C102.853 4.61333 103.226 5.06 103.466 5.7C103.72 6.32667 103.846 7.21333 103.846 8.36V13.82H100.646L100.626 8.98C100.626 8.23333 100.513 7.7 100.286 7.38C100.06 7.06 99.633 6.9 99.0063 6.9C98.4463 6.9 98.0397 7.04667 97.7863 7.34C97.533 7.63333 97.3997 8.12667 97.3863 8.82V13.82ZM109.042 0.459999C109.082 0.939999 109.102 1.34 109.102 1.66C109.102 1.84667 109.096 2.04 109.082 2.24C109.082 2.42667 109.069 2.64 109.042 2.88C108.762 2.93333 108.489 2.97333 108.222 3C107.956 3.02667 107.689 3.04 107.422 3.04C107.169 3.04 106.909 3.02667 106.642 3C106.389 2.97333 106.129 2.93333 105.862 2.88C105.836 2.65333 105.816 2.44667 105.802 2.26C105.789 2.06 105.782 1.86667 105.782 1.68C105.782 1.50667 105.789 1.32 105.802 1.12C105.816 0.919999 105.836 0.699999 105.862 0.459999C106.129 0.393332 106.396 0.353333 106.662 0.339999C106.942 0.313332 107.216 0.299999 107.482 0.299999C107.736 0.299999 107.989 0.313332 108.242 0.339999C108.509 0.353333 108.776 0.393332 109.042 0.459999ZM109.042 13.82H105.842V4.08H109.042V13.82ZM123.357 3.98C124.343 3.98 125.123 4.30667 125.697 4.96C126.283 5.61333 126.577 6.74667 126.577 8.36V13.82H123.377L123.357 8.76C123.357 8.10667 123.257 7.63333 123.057 7.34C122.87 7.04667 122.497 6.9 121.937 6.9C121.377 6.9 120.997 7.04667 120.797 7.34C120.61 7.63333 120.517 8.10667 120.517 8.76V13.82H117.317L117.297 8.76C117.297 8.10667 117.197 7.63333 116.997 7.34C116.81 7.04667 116.437 6.9 115.877 6.9C115.317 6.9 114.937 7.04667 114.737 7.34C114.55 7.63333 114.457 8.10667 114.457 8.76V13.82H111.257V4.08H114.297L114.457 5.86H114.517C114.69 5.27333 114.99 4.81333 115.417 4.48C115.857 4.14667 116.477 3.98 117.277 3.98C118.077 3.98 118.703 4.14667 119.157 4.48C119.623 4.81333 119.923 5.27333 120.057 5.86H120.117C120.29 5.26 120.623 4.8 121.117 4.48C121.623 4.14667 122.37 3.98 123.357 3.98ZM131.796 0.459999C131.836 0.939999 131.856 1.34 131.856 1.66C131.856 1.84667 131.85 2.04 131.836 2.24C131.836 2.42667 131.823 2.64 131.796 2.88C131.516 2.93333 131.243 2.97333 130.976 3C130.71 3.02667 130.443 3.04 130.176 3.04C129.923 3.04 129.663 3.02667 129.396 3C129.143 2.97333 128.883 2.93333 128.616 2.88C128.59 2.65333 128.57 2.44667 128.556 2.26C128.543 2.06 128.536 1.86667 128.536 1.68C128.536 1.50667 128.543 1.32 128.556 1.12C128.57 0.919999 128.59 0.699999 128.616 0.459999C128.883 0.393332 129.15 0.353333 129.416 0.339999C129.696 0.313332 129.97 0.299999 130.236 0.299999C130.49 0.299999 130.743 0.313332 130.996 0.339999C131.263 0.353333 131.53 0.393332 131.796 0.459999ZM131.796 13.82H128.596V4.08H131.796V13.82ZM137.211 13.82H134.011V4.08H137.051L137.211 5.86H137.271C137.457 5.26 137.791 4.8 138.271 4.48C138.751 4.14667 139.417 3.98 140.271 3.98C141.431 3.98 142.284 4.30667 142.831 4.96C143.391 5.61333 143.671 6.74667 143.671 8.36V13.82H140.471L140.451 8.98C140.451 8.23333 140.337 7.7 140.111 7.38C139.884 7.06 139.457 6.9 138.831 6.9C138.244 6.9 137.831 7.04667 137.591 7.34C137.351 7.62 137.224 8.10667 137.211 8.8V13.82ZM163.462 13.76V13.82H160.062C159.969 13.5 159.855 13.1333 159.722 12.72C159.602 12.3067 159.469 11.8667 159.322 11.4H155.002C154.735 12.3333 154.489 13.14 154.262 13.82H150.862V13.78L154.962 1.16H159.362L163.462 13.76ZM157.122 3.44C156.989 4.12 156.795 4.94667 156.542 5.92C156.289 6.89333 156.022 7.88667 155.742 8.9H158.602C158.309 7.88667 158.035 6.89333 157.782 5.92C157.529 4.94667 157.335 4.12 157.202 3.44H157.122ZM168.07 13.82H164.87V1.16H168.07V13.82ZM170.455 15.86C170.535 15.8733 170.629 15.88 170.735 15.88C171.135 15.88 171.435 15.8067 171.635 15.66C171.835 15.5267 171.935 15.2867 171.935 14.94L171.915 14.92C171.689 15.0533 171.362 15.12 170.935 15.12C169.895 15.12 169.375 14.6267 169.375 13.64C169.375 13.1333 169.502 12.7533 169.755 12.5C170.022 12.2333 170.502 12.1 171.195 12.1C171.902 12.1 172.402 12.3 172.695 12.7C173.002 13.1 173.155 13.6733 173.155 14.42C173.155 15.3933 172.955 16.0667 172.555 16.44C172.155 16.8133 171.589 17 170.855 17C170.789 17 170.722 16.9933 170.655 16.98C170.589 16.98 170.515 16.9733 170.435 16.96V15.88L170.455 15.86ZM179.795 9.02C179.795 7.23333 180.175 5.94667 180.935 5.16C181.695 4.37333 182.982 3.98 184.795 3.98C186.008 3.98 186.982 4.15333 187.715 4.5C188.448 4.84667 188.975 5.39333 189.295 6.14C189.628 6.87333 189.795 7.83333 189.795 9.02C189.795 10.1933 189.628 11.1467 189.295 11.88C188.975 12.6133 188.448 13.1533 187.715 13.5C186.982 13.8333 186.008 14 184.795 14C182.982 14 181.695 13.6133 180.935 12.84C180.175 12.0533 179.795 10.78 179.795 9.02ZM184.795 11.26C185.568 11.26 186.088 11.0933 186.355 10.76C186.635 10.4133 186.775 9.81333 186.775 8.96C186.775 8.14667 186.635 7.56667 186.355 7.22C186.088 6.86 185.568 6.68 184.795 6.68C184.048 6.68 183.528 6.86 183.235 7.22C182.955 7.56667 182.815 8.14667 182.815 8.96C182.815 9.81333 182.955 10.4133 183.235 10.76C183.528 11.0933 184.048 11.26 184.795 11.26ZM201.371 8.52C201.371 10.32 201.004 11.6867 200.271 12.62C199.538 13.54 198.291 14 196.531 14C195.544 14 194.624 13.9667 193.771 13.9C192.931 13.82 192.191 13.7267 191.551 13.62L191.491 13.58V0.359999H194.691V5.58H194.771C194.958 5.1 195.264 4.71333 195.691 4.42C196.131 4.12667 196.751 3.98 197.551 3.98C200.098 3.98 201.371 5.49333 201.371 8.52ZM194.691 8.86V11.2C195.011 11.2533 195.384 11.28 195.811 11.28C196.438 11.28 196.924 11.2267 197.271 11.12C197.631 11 197.884 10.7733 198.031 10.44C198.178 10.1067 198.251 9.62667 198.251 9C198.251 8.21333 198.138 7.63333 197.911 7.26C197.684 6.88667 197.218 6.7 196.511 6.7C195.978 6.7 195.538 6.86667 195.191 7.2C194.858 7.52 194.691 8.07333 194.691 8.86ZM203.273 10.9V6.7H202.073V4.1H203.573L204.173 1.72H206.473V4.1H208.653V6.7H206.473V10.2C206.473 10.5733 206.52 10.8333 206.613 10.98C206.706 11.1133 206.92 11.18 207.253 11.18C207.466 11.18 207.693 11.1733 207.933 11.16C208.173 11.1333 208.413 11.1067 208.653 11.08L208.713 11.12V13.72C208.073 13.9067 207.226 14 206.173 14C205.12 14 204.373 13.76 203.933 13.28C203.493 12.8 203.273 12.0067 203.273 10.9ZM213.534 0.459999C213.574 0.939999 213.594 1.34 213.594 1.66C213.594 1.84667 213.588 2.04 213.574 2.24C213.574 2.42667 213.561 2.64 213.534 2.88C213.254 2.93333 212.981 2.97333 212.714 3C212.448 3.02667 212.181 3.04 211.914 3.04C211.661 3.04 211.401 3.02667 211.134 3C210.881 2.97333 210.621 2.93333 210.354 2.88C210.328 2.65333 210.308 2.44667 210.294 2.26C210.281 2.06 210.274 1.86667 210.274 1.68C210.274 1.50667 210.281 1.32 210.294 1.12C210.308 0.919999 210.328 0.699999 210.354 0.459999C210.621 0.393332 210.888 0.353333 211.154 0.339999C211.434 0.313332 211.708 0.299999 211.974 0.299999C212.228 0.299999 212.481 0.313332 212.734 0.339999C213.001 0.353333 213.268 0.393332 213.534 0.459999ZM213.534 13.82H210.334V4.08H213.534V13.82ZM224.329 13.5C223.955 13.6333 223.435 13.7533 222.769 13.86C222.115 13.9533 221.335 14 220.429 14C219.282 14 218.302 13.8533 217.489 13.56C216.689 13.2533 216.082 12.74 215.669 12.02C215.255 11.2867 215.049 10.2733 215.049 8.98C215.049 7.22 215.449 5.94667 216.249 5.16C217.062 4.37333 218.315 3.98 220.009 3.98C221.222 3.98 222.175 4.15333 222.869 4.5C223.575 4.84667 224.075 5.34 224.369 5.98C224.675 6.60667 224.829 7.35333 224.829 8.22C224.829 8.47333 224.815 8.74667 224.789 9.04C224.775 9.33333 224.742 9.62 224.689 9.9L224.609 9.98H218.029C218.122 10.5667 218.395 10.9533 218.849 11.14C219.315 11.3267 220.069 11.42 221.109 11.42C221.802 11.42 222.375 11.4067 222.829 11.38C223.295 11.34 223.769 11.2867 224.249 11.22L224.329 11.28V13.5ZM222.049 7.88C222.049 7.56 221.995 7.28667 221.889 7.06C221.795 6.82 221.602 6.64 221.309 6.52C221.015 6.38667 220.582 6.32 220.009 6.32C219.169 6.32 218.615 6.46667 218.349 6.76C218.095 7.04 217.969 7.41333 217.969 7.88H222.049ZM229.73 13.82H226.53V4.08H229.57L229.73 5.86H229.79C229.977 5.26 230.31 4.8 230.79 4.48C231.27 4.14667 231.937 3.98 232.79 3.98C233.95 3.98 234.803 4.30667 235.35 4.96C235.91 5.61333 236.19 6.74667 236.19 8.36V13.82H232.99L232.97 8.98C232.97 8.23333 232.857 7.7 232.63 7.38C232.403 7.06 231.977 6.9 231.35 6.9C230.763 6.9 230.35 7.04667 230.11 7.34C229.87 7.62 229.743 8.10667 229.73 8.8V13.82ZM246.966 13.5C246.592 13.6333 246.072 13.7533 245.406 13.86C244.752 13.9533 243.972 14 243.066 14C241.919 14 240.939 13.8533 240.126 13.56C239.326 13.2533 238.719 12.74 238.306 12.02C237.892 11.2867 237.686 10.2733 237.686 8.98C237.686 7.22 238.086 5.94667 238.886 5.16C239.699 4.37333 240.952 3.98 242.646 3.98C243.859 3.98 244.812 4.15333 245.506 4.5C246.212 4.84667 246.712 5.34 247.006 5.98C247.312 6.60667 247.466 7.35333 247.466 8.22C247.466 8.47333 247.452 8.74667 247.426 9.04C247.412 9.33333 247.379 9.62 247.326 9.9L247.246 9.98H240.666C240.759 10.5667 241.032 10.9533 241.486 11.14C241.952 11.3267 242.706 11.42 243.746 11.42C244.439 11.42 245.012 11.4067 245.466 11.38C245.932 11.34 246.406 11.2867 246.886 11.22L246.966 11.28V13.5ZM244.686 7.88C244.686 7.56 244.632 7.28667 244.526 7.06C244.432 6.82 244.239 6.64 243.946 6.52C243.652 6.38667 243.219 6.32 242.646 6.32C241.806 6.32 241.252 6.46667 240.986 6.76C240.732 7.04 240.606 7.41333 240.606 7.88H244.686ZM248.727 11.06C249.767 11.3533 250.92 11.5 252.187 11.5C252.8 11.5 253.26 11.48 253.567 11.44C253.873 11.4 254.08 11.3333 254.187 11.24C254.293 11.1467 254.347 11.02 254.347 10.86C254.347 10.6333 254.26 10.4933 254.087 10.44C253.927 10.3867 253.6 10.3133 253.107 10.22L251.527 9.92C250.513 9.72 249.78 9.40667 249.327 8.98C248.887 8.54 248.667 7.88667 248.667 7.02C248.667 5.84667 249.013 5.04667 249.707 4.62C250.413 4.19333 251.533 3.98 253.067 3.98C253.987 3.98 254.793 4.03333 255.487 4.14C256.193 4.23333 256.78 4.35333 257.247 4.5L257.207 6.92L257.147 6.98C256.067 6.63333 254.887 6.46 253.607 6.46C252.98 6.46 252.54 6.50667 252.287 6.6C252.047 6.68 251.927 6.84667 251.927 7.1C251.927 7.23333 251.96 7.34 252.027 7.42C252.107 7.5 252.28 7.58 252.547 7.66C252.813 7.72667 253.233 7.81333 253.807 7.92L255.267 8.2C256.08 8.37333 256.68 8.66 257.067 9.06C257.453 9.46 257.647 10.0933 257.647 10.96C257.647 11.72 257.507 12.3267 257.227 12.78C256.947 13.22 256.473 13.5333 255.807 13.72C255.153 13.9067 254.247 14 253.087 14C252.207 14 251.393 13.96 250.647 13.88C249.913 13.7867 249.253 13.68 248.667 13.56V11.1L248.727 11.06ZM40.761 28.46C40.801 28.94 40.821 29.34 40.821 29.66C40.821 29.8467 40.8143 30.04 40.801 30.24C40.801 30.4267 40.7877 30.64 40.761 30.88C40.481 30.9333 40.2077 30.9733 39.941 31C39.6743 31.0267 39.4077 31.04 39.141 31.04C38.8877 31.04 38.6277 31.0267 38.361 31C38.1077 30.9733 37.8477 30.9333 37.581 30.88C37.5543 30.6533 37.5343 30.4467 37.521 30.26C37.5077 30.06 37.501 29.8667 37.501 29.68C37.501 29.5067 37.5077 29.32 37.521 29.12C37.5343 28.92 37.5543 28.7 37.581 28.46C37.8477 28.3933 38.1143 28.3533 38.381 28.34C38.661 28.3133 38.9343 28.3 39.201 28.3C39.4543 28.3 39.7077 28.3133 39.961 28.34C40.2277 28.3533 40.4943 28.3933 40.761 28.46ZM40.761 41.82H37.561V32.08H40.761V41.82ZM46.1754 41.82H42.9754V32.08H46.0154L46.1754 33.86H46.2354C46.4221 33.26 46.7554 32.8 47.2354 32.48C47.7154 32.1467 48.3821 31.98 49.2354 31.98C50.3954 31.98 51.2487 32.3067 51.7954 32.96C52.3554 33.6133 52.6354 34.7467 52.6354 36.36V41.82H49.4354L49.4154 36.98C49.4154 36.2333 49.3021 35.7 49.0754 35.38C48.8487 35.06 48.4221 34.9 47.7954 34.9C47.2087 34.9 46.7954 35.0467 46.5554 35.34C46.3154 35.62 46.1887 36.1067 46.1754 36.8V41.82ZM54.0309 34.68V32.08H55.4509V31.58C55.4509 30.26 55.7575 29.3133 56.3709 28.74C56.9842 28.1533 57.8975 27.86 59.1109 27.86C59.5375 27.86 59.9309 27.9 60.2909 27.98C60.6509 28.0467 60.9642 28.1267 61.2309 28.22V30.46L61.1709 30.5C60.9309 30.4733 60.6909 30.4533 60.4509 30.44C60.2109 30.4133 59.9842 30.4 59.7709 30.4C59.3175 30.4 58.9975 30.4867 58.8109 30.66C58.6375 30.82 58.5509 31.0733 58.5509 31.42V32.08H61.2309V34.68H58.5509V41.82H55.4509V34.68H54.0309ZM62.1387 37.02C62.1387 35.2333 62.5187 33.9467 63.2787 33.16C64.0387 32.3733 65.3253 31.98 67.1387 31.98C68.352 31.98 69.3253 32.1533 70.0587 32.5C70.792 32.8467 71.3187 33.3933 71.6387 34.14C71.972 34.8733 72.1387 35.8333 72.1387 37.02C72.1387 38.1933 71.972 39.1467 71.6387 39.88C71.3187 40.6133 70.792 41.1533 70.0587 41.5C69.3253 41.8333 68.352 42 67.1387 42C65.3253 42 64.0387 41.6133 63.2787 40.84C62.5187 40.0533 62.1387 38.78 62.1387 37.02ZM67.1387 39.26C67.912 39.26 68.432 39.0933 68.6987 38.76C68.9787 38.4133 69.1187 37.8133 69.1187 36.96C69.1187 36.1467 68.9787 35.5667 68.6987 35.22C68.432 34.86 67.912 34.68 67.1387 34.68C66.392 34.68 65.872 34.86 65.5787 35.22C65.2987 35.5667 65.1587 36.1467 65.1587 36.96C65.1587 37.8133 65.2987 38.4133 65.5787 38.76C65.872 39.0933 66.392 39.26 67.1387 39.26ZM77.0348 41.82H73.8348V32.08H76.4348L76.6948 34.08H76.7548C76.8748 33.3333 77.1614 32.8 77.6148 32.48C78.0681 32.1467 78.7414 31.98 79.6348 31.98C79.9948 31.98 80.3214 32 80.6148 32.04C80.9081 32.0667 81.1548 32.0933 81.3548 32.12V35.24L81.3148 35.28C81.1014 35.2267 80.8548 35.18 80.5748 35.14C80.3081 35.1 80.0014 35.08 79.6548 35.08C79.1614 35.08 78.7148 35.16 78.3148 35.32C77.9281 35.48 77.6214 35.7933 77.3948 36.26C77.1814 36.7133 77.0748 37.3933 77.0748 38.3L77.0348 41.82ZM94.8605 31.98C95.8472 31.98 96.6272 32.3067 97.2005 32.96C97.7872 33.6133 98.0805 34.7467 98.0805 36.36V41.82H94.8805L94.8605 36.76C94.8605 36.1067 94.7605 35.6333 94.5605 35.34C94.3739 35.0467 94.0005 34.9 93.4405 34.9C92.8805 34.9 92.5005 35.0467 92.3005 35.34C92.1139 35.6333 92.0205 36.1067 92.0205 36.76V41.82H88.8205L88.8005 36.76C88.8005 36.1067 88.7005 35.6333 88.5005 35.34C88.3139 35.0467 87.9405 34.9 87.3805 34.9C86.8205 34.9 86.4405 35.0467 86.2405 35.34C86.0539 35.6333 85.9605 36.1067 85.9605 36.76V41.82H82.7605V32.08H85.8005L85.9605 33.86H86.0205C86.1939 33.2733 86.4939 32.8133 86.9205 32.48C87.3605 32.1467 87.9805 31.98 88.7805 31.98C89.5805 31.98 90.2072 32.1467 90.6605 32.48C91.1272 32.8133 91.4272 33.2733 91.5605 33.86H91.6205C91.7939 33.26 92.1272 32.8 92.6205 32.48C93.1272 32.1467 93.8739 31.98 94.8605 31.98ZM103.98 31.98C105.26 31.98 106.293 32.1133 107.08 32.38C107.867 32.6467 108.44 33.14 108.8 33.86C109.173 34.5667 109.36 35.5933 109.36 36.94V41.82H106.46L106.36 40.9H106.3C106.047 41.2333 105.653 41.5 105.12 41.7C104.587 41.9 103.893 42 103.04 42C100.733 42 99.5801 40.92 99.5801 38.76C99.5801 37.84 99.8801 37.12 100.48 36.6C101.093 36.0667 102.053 35.8 103.36 35.8H106.32C106.227 35.24 105.987 34.8667 105.6 34.68C105.213 34.48 104.553 34.38 103.62 34.38C103.033 34.38 102.453 34.4267 101.88 34.52C101.32 34.6 100.827 34.6933 100.4 34.8L100.34 34.76L100.36 32.44C100.627 32.36 100.967 32.2867 101.38 32.22C101.793 32.14 102.227 32.08 102.68 32.04C103.147 32 103.58 31.98 103.98 31.98ZM103.86 39.64C104.687 39.64 105.307 39.54 105.72 39.34C106.133 39.1267 106.347 38.7933 106.36 38.34V37.84H104.1C103.513 37.84 103.1 37.9267 102.86 38.1C102.633 38.26 102.52 38.48 102.52 38.76C102.52 39.0933 102.64 39.3267 102.88 39.46C103.12 39.58 103.447 39.64 103.86 39.64ZM119.032 39V41.6C118.699 41.7333 118.205 41.8333 117.552 41.9C116.899 41.9667 116.205 42 115.472 42C114.419 42 113.539 41.8533 112.832 41.56C112.139 41.2667 111.619 40.76 111.272 40.04C110.939 39.32 110.765 38.32 110.752 37.04C110.752 35.72 110.932 34.6933 111.292 33.96C111.665 33.2267 112.205 32.7133 112.912 32.42C113.619 32.1267 114.465 31.98 115.452 31.98C116.039 31.98 116.659 32.02 117.312 32.1C117.965 32.18 118.499 32.2867 118.912 32.42L118.932 35.1L118.872 35.14C118.472 35.06 118.045 35 117.592 34.96C117.139 34.92 116.692 34.9 116.252 34.9C115.359 34.9 114.739 35.0667 114.392 35.4C114.045 35.7333 113.872 36.2933 113.872 37.08C113.872 37.68 113.945 38.1267 114.092 38.42C114.239 38.7133 114.485 38.9067 114.832 39C115.179 39.0933 115.652 39.14 116.252 39.14C116.719 39.14 117.165 39.12 117.592 39.08C118.019 39.04 118.472 38.9933 118.952 38.94L119.032 39ZM123.847 28.46C123.887 28.94 123.907 29.34 123.907 29.66C123.907 29.8467 123.9 30.04 123.887 30.24C123.887 30.4267 123.874 30.64 123.847 30.88C123.567 30.9333 123.294 30.9733 123.027 31C122.76 31.0267 122.494 31.04 122.227 31.04C121.974 31.04 121.714 31.0267 121.447 31C121.194 30.9733 120.934 30.9333 120.667 30.88C120.64 30.6533 120.62 30.4467 120.607 30.26C120.594 30.06 120.587 29.8667 120.587 29.68C120.587 29.5067 120.594 29.32 120.607 29.12C120.62 28.92 120.64 28.7 120.667 28.46C120.934 28.3933 121.2 28.3533 121.467 28.34C121.747 28.3133 122.02 28.3 122.287 28.3C122.54 28.3 122.794 28.3133 123.047 28.34C123.314 28.3533 123.58 28.3933 123.847 28.46ZM123.847 41.82H120.647V32.08H123.847V41.82ZM125.361 37.02C125.361 35.2333 125.741 33.9467 126.501 33.16C127.261 32.3733 128.548 31.98 130.361 31.98C131.575 31.98 132.548 32.1533 133.281 32.5C134.015 32.8467 134.541 33.3933 134.861 34.14C135.195 34.8733 135.361 35.8333 135.361 37.02C135.361 38.1933 135.195 39.1467 134.861 39.88C134.541 40.6133 134.015 41.1533 133.281 41.5C132.548 41.8333 131.575 42 130.361 42C128.548 42 127.261 41.6133 126.501 40.84C125.741 40.0533 125.361 38.78 125.361 37.02ZM130.361 39.26C131.135 39.26 131.655 39.0933 131.921 38.76C132.201 38.4133 132.341 37.8133 132.341 36.96C132.341 36.1467 132.201 35.5667 131.921 35.22C131.655 34.86 131.135 34.68 130.361 34.68C129.615 34.68 129.095 34.86 128.801 35.22C128.521 35.5667 128.381 36.1467 128.381 36.96C128.381 37.8133 128.521 38.4133 128.801 38.76C129.095 39.0933 129.615 39.26 130.361 39.26ZM134.061 28.2L131.621 30.98H129.061L131.101 28.06H134.061V28.2ZM140.257 41.82H137.057V32.08H140.097L140.257 33.86H140.317C140.504 33.26 140.837 32.8 141.317 32.48C141.797 32.1467 142.464 31.98 143.317 31.98C144.477 31.98 145.331 32.3067 145.877 32.96C146.437 33.6133 146.717 34.7467 146.717 36.36V41.82H143.517L143.497 36.98C143.497 36.2333 143.384 35.7 143.157 35.38C142.931 35.06 142.504 34.9 141.877 34.9C141.291 34.9 140.877 35.0467 140.637 35.34C140.397 35.62 140.271 36.1067 140.257 36.8V41.82ZM164.089 32.14L160.909 41.82H156.909L153.909 32.12V32.08H157.509C157.789 33.12 158.049 34.2467 158.289 35.46C158.542 36.6733 158.769 37.84 158.969 38.96H159.049C159.249 37.84 159.469 36.6733 159.709 35.46C159.962 34.2467 160.229 33.12 160.509 32.08H164.089V32.14ZM174.075 41.5C173.702 41.6333 173.182 41.7533 172.515 41.86C171.862 41.9533 171.082 42 170.175 42C169.028 42 168.048 41.8533 167.235 41.56C166.435 41.2533 165.828 40.74 165.415 40.02C165.002 39.2867 164.795 38.2733 164.795 36.98C164.795 35.22 165.195 33.9467 165.995 33.16C166.808 32.3733 168.062 31.98 169.755 31.98C170.968 31.98 171.922 32.1533 172.615 32.5C173.322 32.8467 173.822 33.34 174.115 33.98C174.422 34.6067 174.575 35.3533 174.575 36.22C174.575 36.4733 174.562 36.7467 174.535 37.04C174.522 37.3333 174.488 37.62 174.435 37.9L174.355 37.98H167.775C167.868 38.5667 168.142 38.9533 168.595 39.14C169.062 39.3267 169.815 39.42 170.855 39.42C171.548 39.42 172.122 39.4067 172.575 39.38C173.042 39.34 173.515 39.2867 173.995 39.22L174.075 39.28V41.5ZM171.795 35.88C171.795 35.56 171.742 35.2867 171.635 35.06C171.542 34.82 171.348 34.64 171.055 34.52C170.762 34.3867 170.328 34.32 169.755 34.32C168.915 34.32 168.362 34.4667 168.095 34.76C167.842 35.04 167.715 35.4133 167.715 35.88H171.795ZM179.476 41.82H176.276V32.08H178.876L179.136 34.08H179.196C179.316 33.3333 179.603 32.8 180.056 32.48C180.51 32.1467 181.183 31.98 182.076 31.98C182.436 31.98 182.763 32 183.056 32.04C183.35 32.0667 183.596 32.0933 183.796 32.12V35.24L183.756 35.28C183.543 35.2267 183.296 35.18 183.016 35.14C182.75 35.1 182.443 35.08 182.096 35.08C181.603 35.08 181.156 35.16 180.756 35.32C180.37 35.48 180.063 35.7933 179.836 36.26C179.623 36.7133 179.516 37.3933 179.516 38.3L179.476 41.82ZM188.222 28.46C188.262 28.94 188.282 29.34 188.282 29.66C188.282 29.8467 188.275 30.04 188.262 30.24C188.262 30.4267 188.249 30.64 188.222 30.88C187.942 30.9333 187.669 30.9733 187.402 31C187.135 31.0267 186.869 31.04 186.602 31.04C186.349 31.04 186.089 31.0267 185.822 31C185.569 30.9733 185.309 30.9333 185.042 30.88C185.015 30.6533 184.995 30.4467 184.982 30.26C184.969 30.06 184.962 29.8667 184.962 29.68C184.962 29.5067 184.969 29.32 184.982 29.12C184.995 28.92 185.015 28.7 185.042 28.46C185.309 28.3933 185.575 28.3533 185.842 28.34C186.122 28.3133 186.395 28.3 186.662 28.3C186.915 28.3 187.169 28.3133 187.422 28.34C187.689 28.3533 187.955 28.3933 188.222 28.46ZM188.222 41.82H185.022V32.08H188.222V41.82ZM189.636 34.68V32.08H191.056V31.58C191.056 30.26 191.363 29.3133 191.976 28.74C192.59 28.1533 193.503 27.86 194.716 27.86C195.143 27.86 195.536 27.9 195.896 27.98C196.256 28.0467 196.57 28.1267 196.836 28.22V30.46L196.776 30.5C196.536 30.4733 196.296 30.4533 196.056 30.44C195.816 30.4133 195.59 30.4 195.376 30.4C194.923 30.4 194.603 30.4867 194.416 30.66C194.243 30.82 194.156 31.0733 194.156 31.42V32.08H196.836V34.68H194.156V41.82H191.056V34.68H189.636ZM201.464 28.46C201.504 28.94 201.524 29.34 201.524 29.66C201.524 29.8467 201.517 30.04 201.504 30.24C201.504 30.4267 201.491 30.64 201.464 30.88C201.184 30.9333 200.911 30.9733 200.644 31C200.377 31.0267 200.111 31.04 199.844 31.04C199.591 31.04 199.331 31.0267 199.064 31C198.811 30.9733 198.551 30.9333 198.284 30.88C198.257 30.6533 198.237 30.4467 198.224 30.26C198.211 30.06 198.204 29.8667 198.204 29.68C198.204 29.5067 198.211 29.32 198.224 29.12C198.237 28.92 198.257 28.7 198.284 28.46C198.551 28.3933 198.817 28.3533 199.084 28.34C199.364 28.3133 199.637 28.3 199.904 28.3C200.157 28.3 200.411 28.3133 200.664 28.34C200.931 28.3533 201.197 28.3933 201.464 28.46ZM201.464 41.82H198.264V32.08H201.464V41.82ZM211.259 39V41.6C210.925 41.7333 210.432 41.8333 209.779 41.9C209.125 41.9667 208.432 42 207.699 42C206.645 42 205.765 41.8533 205.059 41.56C204.365 41.2667 203.845 40.76 203.499 40.04C203.165 39.32 202.992 38.32 202.979 37.04C202.979 35.72 203.159 34.6933 203.519 33.96C203.892 33.2267 204.432 32.7133 205.139 32.42C205.845 32.1267 206.692 31.98 207.679 31.98C208.265 31.98 208.885 32.02 209.539 32.1C210.192 32.18 210.725 32.2867 211.139 32.42L211.159 35.1L211.099 35.14C210.699 35.06 210.272 35 209.819 34.96C209.365 34.92 208.919 34.9 208.479 34.9C207.585 34.9 206.965 35.0667 206.619 35.4C206.272 35.7333 206.099 36.2933 206.099 37.08C206.099 37.68 206.172 38.1267 206.319 38.42C206.465 38.7133 206.712 38.9067 207.059 39C207.405 39.0933 207.879 39.14 208.479 39.14C208.945 39.14 209.392 39.12 209.819 39.08C210.245 39.04 210.699 38.9933 211.179 38.94L211.259 39ZM216.754 31.98C218.034 31.98 219.067 32.1133 219.854 32.38C220.64 32.6467 221.214 33.14 221.574 33.86C221.947 34.5667 222.134 35.5933 222.134 36.94V41.82H219.234L219.134 40.9H219.074C218.82 41.2333 218.427 41.5 217.894 41.7C217.36 41.9 216.667 42 215.814 42C213.507 42 212.354 40.92 212.354 38.76C212.354 37.84 212.654 37.12 213.254 36.6C213.867 36.0667 214.827 35.8 216.134 35.8H219.094C219 35.24 218.76 34.8667 218.374 34.68C217.987 34.48 217.327 34.38 216.394 34.38C215.807 34.38 215.227 34.4267 214.654 34.52C214.094 34.6 213.6 34.6933 213.174 34.8L213.114 34.76L213.134 32.44C213.4 32.36 213.74 32.2867 214.154 32.22C214.567 32.14 215 32.08 215.454 32.04C215.92 32 216.354 31.98 216.754 31.98ZM216.634 39.64C217.46 39.64 218.08 39.54 218.494 39.34C218.907 39.1267 219.12 38.7933 219.134 38.34V37.84H216.874C216.287 37.84 215.874 37.9267 215.634 38.1C215.407 38.26 215.294 38.48 215.294 38.76C215.294 39.0933 215.414 39.3267 215.654 39.46C215.894 39.58 216.22 39.64 216.634 39.64ZM230.305 41.82L230.185 40.4H230.105C229.879 40.9333 229.552 41.3333 229.125 41.6C228.712 41.8667 228.105 42 227.305 42C226.012 42 225.065 41.6267 224.465 40.88C223.865 40.12 223.552 38.98 223.525 37.46C223.512 36.1 223.652 35.02 223.945 34.22C224.239 33.42 224.699 32.8467 225.325 32.5C225.952 32.1533 226.752 31.98 227.725 31.98C228.232 31.98 228.692 32.0267 229.105 32.12C229.519 32.2 229.852 32.3133 230.105 32.46L230.145 32.44V28.36H233.345V41.82H230.305ZM228.345 39.28C228.879 39.28 229.312 39.1133 229.645 38.78C229.979 38.4467 230.145 37.8933 230.145 37.12V35.02C229.652 34.82 229.072 34.72 228.405 34.72C227.779 34.72 227.325 34.8733 227.045 35.18C226.779 35.4733 226.645 36.0733 226.645 36.98C226.645 37.7533 226.752 38.3333 226.965 38.72C227.192 39.0933 227.652 39.28 228.345 39.28ZM239.449 31.98C240.729 31.98 241.762 32.1133 242.549 32.38C243.335 32.6467 243.909 33.14 244.269 33.86C244.642 34.5667 244.829 35.5933 244.829 36.94V41.82H241.929L241.829 40.9H241.769C241.515 41.2333 241.122 41.5 240.589 41.7C240.055 41.9 239.362 42 238.509 42C236.202 42 235.049 40.92 235.049 38.76C235.049 37.84 235.349 37.12 235.949 36.6C236.562 36.0667 237.522 35.8 238.829 35.8H241.789C241.695 35.24 241.455 34.8667 241.069 34.68C240.682 34.48 240.022 34.38 239.089 34.38C238.502 34.38 237.922 34.4267 237.349 34.52C236.789 34.6 236.295 34.6933 235.869 34.8L235.809 34.76L235.829 32.44C236.095 32.36 236.435 32.2867 236.849 32.22C237.262 32.14 237.695 32.08 238.149 32.04C238.615 32 239.049 31.98 239.449 31.98ZM239.329 39.64C240.155 39.64 240.775 39.54 241.189 39.34C241.602 39.1267 241.815 38.7933 241.829 38.34V37.84H239.569C238.982 37.84 238.569 37.9267 238.329 38.1C238.102 38.26 237.989 38.48 237.989 38.76C237.989 39.0933 238.109 39.3267 238.349 39.46C238.589 39.58 238.915 39.64 239.329 39.64ZM254.037 45.5L255.577 41.84L251.717 32.12V32.08H255.297C255.67 33.1333 256.017 34.1933 256.337 35.26C256.67 36.3267 256.937 37.42 257.137 38.54H257.177C257.377 37.4333 257.63 36.3467 257.937 35.28C258.257 34.2133 258.617 33.1467 259.017 32.08H262.457V32.14L257.317 45.54H254.037V45.5ZM8.70969 67V69.6C8.37635 69.7333 7.88302 69.8333 7.22969 69.9C6.57635 69.9667 5.88302 70 5.14969 70C4.09635 70 3.21635 69.8533 2.50969 69.56C1.81635 69.2667 1.29635 68.76 0.949688 68.04C0.616354 67.32 0.443021 66.32 0.429688 65.04C0.429688 63.72 0.609688 62.6933 0.969688 61.96C1.34302 61.2267 1.88302 60.7133 2.58969 60.42C3.29635 60.1267 4.14302 59.98 5.12969 59.98C5.71635 59.98 6.33635 60.02 6.98969 60.1C7.64302 60.18 8.17635 60.2867 8.58969 60.42L8.60969 63.1L8.54969 63.14C8.14969 63.06 7.72302 63 7.26969 62.96C6.81635 62.92 6.36969 62.9 5.92969 62.9C5.03635 62.9 4.41635 63.0667 4.06969 63.4C3.72302 63.7333 3.54969 64.2933 3.54969 65.08C3.54969 65.68 3.62302 66.1267 3.76969 66.42C3.91635 66.7133 4.16302 66.9067 4.50969 67C4.85635 67.0933 5.32969 67.14 5.92969 67.14C6.39635 67.14 6.84302 67.12 7.26969 67.08C7.69635 67.04 8.14969 66.9933 8.62969 66.94L8.70969 67ZM13.7047 69.82H10.5047V56.36H13.7047V69.82ZM19.8102 59.98C21.0902 59.98 22.1235 60.1133 22.9102 60.38C23.6968 60.6467 24.2702 61.14 24.6302 61.86C25.0035 62.5667 25.1902 63.5933 25.1902 64.94V69.82H22.2902L22.1902 68.9H22.1302C21.8768 69.2333 21.4835 69.5 20.9502 69.7C20.4168 69.9 19.7235 70 18.8702 70C16.5635 70 15.4102 68.92 15.4102 66.76C15.4102 65.84 15.7102 65.12 16.3102 64.6C16.9235 64.0667 17.8835 63.8 19.1902 63.8H22.1502C22.0568 63.24 21.8168 62.8667 21.4302 62.68C21.0435 62.48 20.3835 62.38 19.4502 62.38C18.8635 62.38 18.2835 62.4267 17.7102 62.52C17.1502 62.6 16.6568 62.6933 16.2302 62.8L16.1702 62.76L16.1902 60.44C16.4568 60.36 16.7968 60.2867 17.2102 60.22C17.6235 60.14 18.0568 60.08 18.5102 60.04C18.9768 60 19.4102 59.98 19.8102 59.98ZM19.6902 67.64C20.5168 67.64 21.1368 67.54 21.5502 67.34C21.9635 67.1267 22.1768 66.7933 22.1902 66.34V65.84H19.9302C19.3435 65.84 18.9302 65.9267 18.6902 66.1C18.4635 66.26 18.3502 66.48 18.3502 66.76C18.3502 67.0933 18.4702 67.3267 18.7102 67.46C18.9502 67.58 19.2768 67.64 19.6902 67.64ZM26.842 67.06C27.882 67.3533 29.0354 67.5 30.302 67.5C30.9154 67.5 31.3754 67.48 31.682 67.44C31.9887 67.4 32.1954 67.3333 32.302 67.24C32.4087 67.1467 32.462 67.02 32.462 66.86C32.462 66.6333 32.3754 66.4933 32.202 66.44C32.042 66.3867 31.7154 66.3133 31.222 66.22L29.642 65.92C28.6287 65.72 27.8954 65.4067 27.442 64.98C27.002 64.54 26.782 63.8867 26.782 63.02C26.782 61.8467 27.1287 61.0467 27.822 60.62C28.5287 60.1933 29.6487 59.98 31.182 59.98C32.102 59.98 32.9087 60.0333 33.602 60.14C34.3087 60.2333 34.8954 60.3533 35.362 60.5L35.322 62.92L35.262 62.98C34.182 62.6333 33.002 62.46 31.722 62.46C31.0954 62.46 30.6554 62.5067 30.402 62.6C30.162 62.68 30.042 62.8467 30.042 63.1C30.042 63.2333 30.0754 63.34 30.142 63.42C30.222 63.5 30.3954 63.58 30.662 63.66C30.9287 63.7267 31.3487 63.8133 31.922 63.92L33.382 64.2C34.1954 64.3733 34.7954 64.66 35.182 65.06C35.5687 65.46 35.762 66.0933 35.762 66.96C35.762 67.72 35.622 68.3267 35.342 68.78C35.062 69.22 34.5887 69.5333 33.922 69.72C33.2687 69.9067 32.362 70 31.202 70C30.322 70 29.5087 69.96 28.762 69.88C28.0287 69.7867 27.3687 69.68 26.782 69.56V67.1L26.842 67.06ZM40.4778 56.46C40.5178 56.94 40.5378 57.34 40.5378 57.66C40.5378 57.8467 40.5311 58.04 40.5178 58.24C40.5178 58.4267 40.5045 58.64 40.4778 58.88C40.1978 58.9333 39.9245 58.9733 39.6578 59C39.3911 59.0267 39.1245 59.04 38.8578 59.04C38.6045 59.04 38.3445 59.0267 38.0778 59C37.8245 58.9733 37.5645 58.9333 37.2978 58.88C37.2711 58.6533 37.2511 58.4467 37.2378 58.26C37.2245 58.06 37.2178 57.8667 37.2178 57.68C37.2178 57.5067 37.2245 57.32 37.2378 57.12C37.2511 56.92 37.2711 56.7 37.2978 56.46C37.5645 56.3933 37.8311 56.3533 38.0978 56.34C38.3778 56.3133 38.6511 56.3 38.9178 56.3C39.1711 56.3 39.4245 56.3133 39.6778 56.34C39.9445 56.3533 40.2111 56.3933 40.4778 56.46ZM40.4778 69.82H37.2778V60.08H40.4778V69.82ZM41.8922 62.68V60.08H43.3122V59.58C43.3122 58.26 43.6189 57.3133 44.2322 56.74C44.8455 56.1533 45.7589 55.86 46.9722 55.86C47.3989 55.86 47.7922 55.9 48.1522 55.98C48.5122 56.0467 48.8255 56.1267 49.0922 56.22V58.46L49.0322 58.5C48.7922 58.4733 48.5522 58.4533 48.3122 58.44C48.0722 58.4133 47.8455 58.4 47.6322 58.4C47.1789 58.4 46.8589 58.4867 46.6722 58.66C46.4989 58.82 46.4122 59.0733 46.4122 59.42V60.08H49.0922V62.68H46.4122V69.82H43.3122V62.68H41.8922ZM53.72 56.46C53.76 56.94 53.78 57.34 53.78 57.66C53.78 57.8467 53.7733 58.04 53.76 58.24C53.76 58.4267 53.7467 58.64 53.72 58.88C53.44 58.9333 53.1667 58.9733 52.9 59C52.6333 59.0267 52.3667 59.04 52.1 59.04C51.8467 59.04 51.5867 59.0267 51.32 59C51.0667 58.9733 50.8067 58.9333 50.54 58.88C50.5133 58.6533 50.4933 58.4467 50.48 58.26C50.4667 58.06 50.46 57.8667 50.46 57.68C50.46 57.5067 50.4667 57.32 50.48 57.12C50.4933 56.92 50.5133 56.7 50.54 56.46C50.8067 56.3933 51.0733 56.3533 51.34 56.34C51.62 56.3133 51.8933 56.3 52.16 56.3C52.4133 56.3 52.6667 56.3133 52.92 56.34C53.1867 56.3533 53.4533 56.3933 53.72 56.46ZM53.72 69.82H50.52V60.08H53.72V69.82ZM63.5144 67V69.6C63.181 69.7333 62.6877 69.8333 62.0344 69.9C61.381 69.9667 60.6877 70 59.9544 70C58.901 70 58.021 69.8533 57.3144 69.56C56.621 69.2667 56.101 68.76 55.7544 68.04C55.421 67.32 55.2477 66.32 55.2344 65.04C55.2344 63.72 55.4144 62.6933 55.7744 61.96C56.1477 61.2267 56.6877 60.7133 57.3944 60.42C58.101 60.1267 58.9477 59.98 59.9344 59.98C60.521 59.98 61.141 60.02 61.7944 60.1C62.4477 60.18 62.981 60.2867 63.3944 60.42L63.4144 63.1L63.3544 63.14C62.9544 63.06 62.5277 63 62.0744 62.96C61.621 62.92 61.1744 62.9 60.7344 62.9C59.841 62.9 59.221 63.0667 58.8744 63.4C58.5277 63.7333 58.3544 64.2933 58.3544 65.08C58.3544 65.68 58.4277 66.1267 58.5744 66.42C58.721 66.7133 58.9677 66.9067 59.3144 67C59.661 67.0933 60.1344 67.14 60.7344 67.14C61.201 67.14 61.6477 67.12 62.0744 67.08C62.501 67.04 62.9544 66.9933 63.4344 66.94L63.5144 67ZM69.0094 59.98C70.2894 59.98 71.3227 60.1133 72.1094 60.38C72.896 60.6467 73.4694 61.14 73.8294 61.86C74.2027 62.5667 74.3894 63.5933 74.3894 64.94V69.82H71.4894L71.3894 68.9H71.3294C71.076 69.2333 70.6827 69.5 70.1494 69.7C69.616 69.9 68.9227 70 68.0694 70C65.7627 70 64.6094 68.92 64.6094 66.76C64.6094 65.84 64.9094 65.12 65.5094 64.6C66.1227 64.0667 67.0827 63.8 68.3894 63.8H71.3494C71.256 63.24 71.016 62.8667 70.6294 62.68C70.2427 62.48 69.5827 62.38 68.6494 62.38C68.0627 62.38 67.4827 62.4267 66.9094 62.52C66.3494 62.6 65.856 62.6933 65.4294 62.8L65.3694 62.76L65.3894 60.44C65.656 60.36 65.996 60.2867 66.4094 60.22C66.8227 60.14 67.256 60.08 67.7094 60.04C68.176 60 68.6094 59.98 69.0094 59.98ZM68.8894 67.64C69.716 67.64 70.336 67.54 70.7494 67.34C71.1627 67.1267 71.376 66.7933 71.3894 66.34V65.84H69.1294C68.5427 65.84 68.1294 65.9267 67.8894 66.1C67.6627 66.26 67.5494 66.48 67.5494 66.76C67.5494 67.0933 67.6694 67.3267 67.9094 67.46C68.1494 67.58 68.476 67.64 68.8894 67.64ZM82.5613 69.82L82.4413 68.4H82.3613C82.1346 68.9333 81.8079 69.3333 81.3813 69.6C80.9679 69.8667 80.3613 70 79.5613 70C78.2679 70 77.3213 69.6267 76.7213 68.88C76.1213 68.12 75.8079 66.98 75.7813 65.46C75.7679 64.1 75.9079 63.02 76.2013 62.22C76.4946 61.42 76.9546 60.8467 77.5813 60.5C78.2079 60.1533 79.0079 59.98 79.9813 59.98C80.4879 59.98 80.9479 60.0267 81.3613 60.12C81.7746 60.2 82.1079 60.3133 82.3613 60.46L82.4013 60.44V56.36H85.6013V69.82H82.5613ZM80.6013 67.28C81.1346 67.28 81.5679 67.1133 81.9013 66.78C82.2346 66.4467 82.4013 65.8933 82.4013 65.12V63.02C81.9079 62.82 81.3279 62.72 80.6613 62.72C80.0346 62.72 79.5813 62.8733 79.3013 63.18C79.0346 63.4733 78.9013 64.0733 78.9013 64.98C78.9013 65.7533 79.0079 66.3333 79.2213 66.72C79.4479 67.0933 79.9079 67.28 80.6013 67.28ZM91.7047 59.98C92.9847 59.98 94.018 60.1133 94.8047 60.38C95.5914 60.6467 96.1647 61.14 96.5247 61.86C96.898 62.5667 97.0847 63.5933 97.0847 64.94V69.82H94.1847L94.0847 68.9H94.0247C93.7714 69.2333 93.378 69.5 92.8447 69.7C92.3114 69.9 91.618 70 90.7647 70C88.458 70 87.3047 68.92 87.3047 66.76C87.3047 65.84 87.6047 65.12 88.2047 64.6C88.818 64.0667 89.778 63.8 91.0847 63.8H94.0447C93.9514 63.24 93.7114 62.8667 93.3247 62.68C92.938 62.48 92.278 62.38 91.3447 62.38C90.758 62.38 90.178 62.4267 89.6047 62.52C89.0447 62.6 88.5514 62.6933 88.1247 62.8L88.0647 62.76L88.0847 60.44C88.3514 60.36 88.6914 60.2867 89.1047 60.22C89.518 60.14 89.9514 60.08 90.4047 60.04C90.8714 60 91.3047 59.98 91.7047 59.98ZM91.5847 67.64C92.4114 67.64 93.0314 67.54 93.4447 67.34C93.858 67.1267 94.0714 66.7933 94.0847 66.34V65.84H91.8247C91.238 65.84 90.8247 65.9267 90.5847 66.1C90.358 66.26 90.2447 66.48 90.2447 66.76C90.2447 67.0933 90.3647 67.3267 90.6047 67.46C90.8447 67.58 91.1714 67.64 91.5847 67.64ZM111.253 69.82L111.133 68.4H111.053C110.826 68.9333 110.499 69.3333 110.073 69.6C109.659 69.8667 109.053 70 108.253 70C106.959 70 106.013 69.6267 105.413 68.88C104.813 68.12 104.499 66.98 104.473 65.46C104.459 64.1 104.599 63.02 104.893 62.22C105.186 61.42 105.646 60.8467 106.273 60.5C106.899 60.1533 107.699 59.98 108.673 59.98C109.179 59.98 109.639 60.0267 110.053 60.12C110.466 60.2 110.799 60.3133 111.053 60.46L111.093 60.44V56.36H114.293V69.82H111.253ZM109.293 67.28C109.826 67.28 110.259 67.1133 110.593 66.78C110.926 66.4467 111.093 65.8933 111.093 65.12V63.02C110.599 62.82 110.019 62.72 109.353 62.72C108.726 62.72 108.273 62.8733 107.993 63.18C107.726 63.4733 107.593 64.0733 107.593 64.98C107.593 65.7533 107.699 66.3333 107.913 66.72C108.139 67.0933 108.599 67.28 109.293 67.28ZM125.276 69.5C124.903 69.6333 124.383 69.7533 123.716 69.86C123.063 69.9533 122.283 70 121.376 70C120.229 70 119.249 69.8533 118.436 69.56C117.636 69.2533 117.029 68.74 116.616 68.02C116.203 67.2867 115.996 66.2733 115.996 64.98C115.996 63.22 116.396 61.9467 117.196 61.16C118.009 60.3733 119.263 59.98 120.956 59.98C122.169 59.98 123.123 60.1533 123.816 60.5C124.523 60.8467 125.023 61.34 125.316 61.98C125.623 62.6067 125.776 63.3533 125.776 64.22C125.776 64.4733 125.763 64.7467 125.736 65.04C125.723 65.3333 125.689 65.62 125.636 65.9L125.556 65.98H118.976C119.069 66.5667 119.343 66.9533 119.796 67.14C120.263 67.3267 121.016 67.42 122.056 67.42C122.749 67.42 123.323 67.4067 123.776 67.38C124.243 67.34 124.716 67.2867 125.196 67.22L125.276 67.28V69.5ZM122.996 63.88C122.996 63.56 122.943 63.2867 122.836 63.06C122.743 62.82 122.549 62.64 122.256 62.52C121.963 62.3867 121.529 62.32 120.956 62.32C120.116 62.32 119.563 62.4667 119.296 62.76C119.043 63.04 118.916 63.4133 118.916 63.88H122.996ZM145.573 59.98C146.56 59.98 147.34 60.3067 147.913 60.96C148.5 61.6133 148.793 62.7467 148.793 64.36V69.82H145.593L145.573 64.76C145.573 64.1067 145.473 63.6333 145.273 63.34C145.087 63.0467 144.713 62.9 144.153 62.9C143.593 62.9 143.213 63.0467 143.013 63.34C142.827 63.6333 142.733 64.1067 142.733 64.76V69.82H139.533L139.513 64.76C139.513 64.1067 139.413 63.6333 139.213 63.34C139.027 63.0467 138.653 62.9 138.093 62.9C137.533 62.9 137.153 63.0467 136.953 63.34C136.767 63.6333 136.673 64.1067 136.673 64.76V69.82H133.473V60.08H136.513L136.673 61.86H136.733C136.907 61.2733 137.207 60.8133 137.633 60.48C138.073 60.1467 138.693 59.98 139.493 59.98C140.293 59.98 140.92 60.1467 141.373 60.48C141.84 60.8133 142.14 61.2733 142.273 61.86H142.333C142.507 61.26 142.84 60.8 143.333 60.48C143.84 60.1467 144.587 59.98 145.573 59.98ZM154.193 70C152.966 70 152.093 69.6733 151.573 69.02C151.053 68.3667 150.793 67.4333 150.793 66.22V60.08H153.993L154.013 65.44C154.013 66.04 154.12 66.4667 154.333 66.72C154.546 66.96 154.98 67.08 155.633 67.08C156.26 67.08 156.68 66.9733 156.893 66.76C157.12 66.5333 157.24 66.1533 157.253 65.62V60.08H160.453V69.82H157.413L157.253 68.72H157.193C157.02 69.1067 156.666 69.42 156.133 69.66C155.6 69.8867 154.953 70 154.193 70ZM159.393 56.2L156.953 58.98H154.393L156.433 56.06H159.393V56.2ZM166.185 69.82H162.985V56.36H166.185V69.82ZM168.791 66.9V62.7H167.591V60.1H169.091L169.691 57.72H171.991V60.1H174.171V62.7H171.991V66.2C171.991 66.5733 172.037 66.8333 172.131 66.98C172.224 67.1133 172.437 67.18 172.771 67.18C172.984 67.18 173.211 67.1733 173.451 67.16C173.691 67.1333 173.931 67.1067 174.171 67.08L174.231 67.12V69.72C173.591 69.9067 172.744 70 171.691 70C170.637 70 169.891 69.76 169.451 69.28C169.011 68.8 168.791 68.0067 168.791 66.9ZM179.052 56.46C179.092 56.94 179.112 57.34 179.112 57.66C179.112 57.8467 179.105 58.04 179.092 58.24C179.092 58.4267 179.079 58.64 179.052 58.88C178.772 58.9333 178.499 58.9733 178.232 59C177.965 59.0267 177.699 59.04 177.432 59.04C177.179 59.04 176.919 59.0267 176.652 59C176.399 58.9733 176.139 58.9333 175.872 58.88C175.845 58.6533 175.825 58.4467 175.812 58.26C175.799 58.06 175.792 57.8667 175.792 57.68C175.792 57.5067 175.799 57.32 175.812 57.12C175.825 56.92 175.845 56.7 175.872 56.46C176.139 56.3933 176.405 56.3533 176.672 56.34C176.952 56.3133 177.225 56.3 177.492 56.3C177.745 56.3 177.999 56.3133 178.252 56.34C178.519 56.3533 178.785 56.3933 179.052 56.46ZM179.052 69.82H175.852V60.08H179.052V69.82ZM184.466 73.54H181.266V60.08H184.306L184.466 61.46V61.58H184.506C184.733 61.0333 185.053 60.6333 185.466 60.38C185.893 60.1133 186.506 59.98 187.306 59.98C188.6 59.98 189.546 60.36 190.146 61.12C190.76 61.8667 191.073 63 191.086 64.52C191.113 65.8667 190.973 66.9467 190.666 67.76C190.373 68.56 189.913 69.1333 189.286 69.48C188.66 69.8267 187.86 70 186.886 70C186.38 70 185.92 69.9533 185.506 69.86C185.106 69.7667 184.773 69.6533 184.506 69.52L184.466 69.54V73.54ZM186.266 62.7C185.733 62.7 185.3 62.8667 184.966 63.2C184.633 63.52 184.466 64.0733 184.466 64.86V66.96C184.96 67.16 185.54 67.26 186.206 67.26C186.833 67.26 187.28 67.1133 187.546 66.82C187.826 66.5133 187.966 65.9067 187.966 65C187.966 64.2133 187.86 63.6333 187.646 63.26C187.433 62.8867 186.973 62.7 186.266 62.7ZM195.99 69.82H192.79V56.36H195.99V69.82ZM206.975 69.5C206.602 69.6333 206.082 69.7533 205.415 69.86C204.762 69.9533 203.982 70 203.075 70C201.929 70 200.949 69.8533 200.135 69.56C199.335 69.2533 198.729 68.74 198.315 68.02C197.902 67.2867 197.695 66.2733 197.695 64.98C197.695 63.22 198.095 61.9467 198.895 61.16C199.709 60.3733 200.962 59.98 202.655 59.98C203.869 59.98 204.822 60.1533 205.515 60.5C206.222 60.8467 206.722 61.34 207.015 61.98C207.322 62.6067 207.475 63.3533 207.475 64.22C207.475 64.4733 207.462 64.7467 207.435 65.04C207.422 65.3333 207.389 65.62 207.335 65.9L207.255 65.98H200.675C200.769 66.5667 201.042 66.9533 201.495 67.14C201.962 67.3267 202.715 67.42 203.755 67.42C204.449 67.42 205.022 67.4067 205.475 67.38C205.942 67.34 206.415 67.2867 206.895 67.22L206.975 67.28V69.5ZM204.695 63.88C204.695 63.56 204.642 63.2867 204.535 63.06C204.442 62.82 204.249 62.64 203.955 62.52C203.662 62.3867 203.229 62.32 202.655 62.32C201.815 62.32 201.262 62.4667 200.995 62.76C200.742 63.04 200.615 63.4133 200.615 63.88H204.695ZM208.737 67.06C209.777 67.3533 210.93 67.5 212.197 67.5C212.81 67.5 213.27 67.48 213.577 67.44C213.883 67.4 214.09 67.3333 214.197 67.24C214.303 67.1467 214.357 67.02 214.357 66.86C214.357 66.6333 214.27 66.4933 214.097 66.44C213.937 66.3867 213.61 66.3133 213.117 66.22L211.537 65.92C210.523 65.72 209.79 65.4067 209.337 64.98C208.897 64.54 208.677 63.8867 208.677 63.02C208.677 61.8467 209.023 61.0467 209.717 60.62C210.423 60.1933 211.543 59.98 213.077 59.98C213.997 59.98 214.803 60.0333 215.497 60.14C216.203 60.2333 216.79 60.3533 217.257 60.5L217.217 62.92L217.157 62.98C216.077 62.6333 214.897 62.46 213.617 62.46C212.99 62.46 212.55 62.5067 212.297 62.6C212.057 62.68 211.937 62.8467 211.937 63.1C211.937 63.2333 211.97 63.34 212.037 63.42C212.117 63.5 212.29 63.58 212.557 63.66C212.823 63.7267 213.243 63.8133 213.817 63.92L215.277 64.2C216.09 64.3733 216.69 64.66 217.077 65.06C217.463 65.46 217.657 66.0933 217.657 66.96C217.657 67.72 217.517 68.3267 217.237 68.78C216.957 69.22 216.483 69.5333 215.817 69.72C215.163 69.9067 214.257 70 213.097 70C212.217 70 211.403 69.96 210.657 69.88C209.923 69.7867 209.263 69.68 208.677 69.56V67.1L208.737 67.06ZM224.548 62.68V60.08H225.968V59.58C225.968 58.26 226.275 57.3133 226.888 56.74C227.502 56.1533 228.415 55.86 229.628 55.86C230.055 55.86 230.448 55.9 230.808 55.98C231.168 56.0467 231.482 56.1267 231.748 56.22V58.46L231.688 58.5C231.448 58.4733 231.208 58.4533 230.968 58.44C230.728 58.4133 230.502 58.4 230.288 58.4C229.835 58.4 229.515 58.4867 229.328 58.66C229.155 58.82 229.068 59.0733 229.068 59.42V60.08H231.748V62.68H229.068V69.82H225.968V62.68H224.548ZM236.556 70C235.33 70 234.456 69.6733 233.936 69.02C233.416 68.3667 233.156 67.4333 233.156 66.22V60.08H236.356L236.376 65.44C236.376 66.04 236.483 66.4667 236.696 66.72C236.91 66.96 237.343 67.08 237.996 67.08C238.623 67.08 239.043 66.9733 239.256 66.76C239.483 66.5333 239.603 66.1533 239.616 65.62V60.08H242.816V69.82H239.776L239.616 68.72H239.556C239.383 69.1067 239.03 69.42 238.496 69.66C237.963 69.8867 237.316 70 236.556 70ZM253.792 69.5C253.418 69.6333 252.898 69.7533 252.232 69.86C251.578 69.9533 250.798 70 249.892 70C248.745 70 247.765 69.8533 246.952 69.56C246.152 69.2533 245.545 68.74 245.132 68.02C244.718 67.2867 244.512 66.2733 244.512 64.98C244.512 63.22 244.912 61.9467 245.712 61.16C246.525 60.3733 247.778 59.98 249.472 59.98C250.685 59.98 251.638 60.1533 252.332 60.5C253.038 60.8467 253.538 61.34 253.832 61.98C254.138 62.6067 254.292 63.3533 254.292 64.22C254.292 64.4733 254.278 64.7467 254.252 65.04C254.238 65.3333 254.205 65.62 254.152 65.9L254.072 65.98H247.492C247.585 66.5667 247.858 66.9533 248.312 67.14C248.778 67.3267 249.532 67.42 250.572 67.42C251.265 67.42 251.838 67.4067 252.292 67.38C252.758 67.34 253.232 67.2867 253.712 67.22L253.792 67.28V69.5ZM251.512 63.88C251.512 63.56 251.458 63.2867 251.352 63.06C251.258 62.82 251.065 62.64 250.772 62.52C250.478 62.3867 250.045 62.32 249.472 62.32C248.632 62.32 248.078 62.4667 247.812 62.76C247.558 63.04 247.432 63.4133 247.432 63.88H251.512ZM259.193 69.82H255.993V60.08H259.033L259.193 61.86H259.253C259.44 61.26 259.773 60.8 260.253 60.48C260.733 60.1467 261.4 59.98 262.253 59.98C263.413 59.98 264.266 60.3067 264.813 60.96C265.373 61.6133 265.653 62.7467 265.653 64.36V69.82H262.453L262.433 64.98C262.433 64.2333 262.32 63.7 262.093 63.38C261.866 63.06 261.44 62.9 260.813 62.9C260.226 62.9 259.813 63.0467 259.573 63.34C259.333 63.62 259.206 64.1067 259.193 64.8V69.82ZM268.048 66.9V62.7H266.848V60.1H268.348L268.948 57.72H271.248V60.1H273.428V62.7H271.248V66.2C271.248 66.5733 271.295 66.8333 271.388 66.98C271.482 67.1133 271.695 67.18 272.028 67.18C272.242 67.18 272.468 67.1733 272.708 67.16C272.948 67.1333 273.188 67.1067 273.428 67.08L273.488 67.12V69.72C272.848 69.9067 272.002 70 270.948 70C269.895 70 269.148 69.76 268.708 69.28C268.268 68.8 268.048 68.0067 268.048 66.9ZM283.87 69.5C283.497 69.6333 282.977 69.7533 282.31 69.86C281.657 69.9533 280.877 70 279.97 70C278.823 70 277.843 69.8533 277.03 69.56C276.23 69.2533 275.623 68.74 275.21 68.02C274.797 67.2867 274.59 66.2733 274.59 64.98C274.59 63.22 274.99 61.9467 275.79 61.16C276.603 60.3733 277.857 59.98 279.55 59.98C280.763 59.98 281.717 60.1533 282.41 60.5C283.117 60.8467 283.617 61.34 283.91 61.98C284.217 62.6067 284.37 63.3533 284.37 64.22C284.37 64.4733 284.357 64.7467 284.33 65.04C284.317 65.3333 284.283 65.62 284.23 65.9L284.15 65.98H277.57C277.663 66.5667 277.937 66.9533 278.39 67.14C278.857 67.3267 279.61 67.42 280.65 67.42C281.343 67.42 281.917 67.4067 282.37 67.38C282.837 67.34 283.31 67.2867 283.79 67.22L283.87 67.28V69.5ZM281.59 63.88C281.59 63.56 281.537 63.2867 281.43 63.06C281.337 62.82 281.143 62.64 280.85 62.52C280.557 62.3867 280.123 62.32 279.55 62.32C278.71 62.32 278.157 62.4667 277.89 62.76C277.637 63.04 277.51 63.4133 277.51 63.88H281.59ZM285.631 67.06C286.671 67.3533 287.824 67.5 289.091 67.5C289.704 67.5 290.164 67.48 290.471 67.44C290.778 67.4 290.984 67.3333 291.091 67.24C291.198 67.1467 291.251 67.02 291.251 66.86C291.251 66.6333 291.164 66.4933 290.991 66.44C290.831 66.3867 290.504 66.3133 290.011 66.22L288.431 65.92C287.418 65.72 286.684 65.4067 286.231 64.98C285.791 64.54 285.571 63.8867 285.571 63.02C285.571 61.8467 285.918 61.0467 286.611 60.62C287.318 60.1933 288.438 59.98 289.971 59.98C290.891 59.98 291.698 60.0333 292.391 60.14C293.098 60.2333 293.684 60.3533 294.151 60.5L294.111 62.92L294.051 62.98C292.971 62.6333 291.791 62.46 290.511 62.46C289.884 62.46 289.444 62.5067 289.191 62.6C288.951 62.68 288.831 62.8467 288.831 63.1C288.831 63.2333 288.864 63.34 288.931 63.42C289.011 63.5 289.184 63.58 289.451 63.66C289.718 63.7267 290.138 63.8133 290.711 63.92L292.171 64.2C292.984 64.3733 293.584 64.66 293.971 65.06C294.358 65.46 294.551 66.0933 294.551 66.96C294.551 67.72 294.411 68.3267 294.131 68.78C293.851 69.22 293.378 69.5333 292.711 69.72C292.058 69.9067 291.151 70 289.991 70C289.111 70 288.298 69.96 287.551 69.88C286.818 69.7867 286.158 69.68 285.571 69.56V67.1L285.631 67.06ZM296.227 71.86C296.307 71.8733 296.4 71.88 296.507 71.88C296.907 71.88 297.207 71.8067 297.407 71.66C297.607 71.5267 297.707 71.2867 297.707 70.94L297.687 70.92C297.46 71.0533 297.134 71.12 296.707 71.12C295.667 71.12 295.147 70.6267 295.147 69.64C295.147 69.1333 295.274 68.7533 295.527 68.5C295.794 68.2333 296.274 68.1 296.967 68.1C297.674 68.1 298.174 68.3 298.467 68.7C298.774 69.1 298.927 69.6733 298.927 70.42C298.927 71.3933 298.727 72.0667 298.327 72.44C297.927 72.8133 297.36 73 296.627 73C296.56 73 296.494 72.9933 296.427 72.98C296.36 72.98 296.287 72.9733 296.207 72.96V71.88L296.227 71.86ZM59.0554 97.82L58.9354 96.4H58.8554C58.6287 96.9333 58.3021 97.3333 57.8754 97.6C57.4621 97.8667 56.8554 98 56.0554 98C54.7621 98 53.8154 97.6267 53.2154 96.88C52.6154 96.12 52.3021 94.98 52.2754 93.46C52.2621 92.1 52.4021 91.02 52.6954 90.22C52.9887 89.42 53.4487 88.8467 54.0754 88.5C54.7021 88.1533 55.5021 87.98 56.4754 87.98C56.9821 87.98 57.4421 88.0267 57.8554 88.12C58.2687 88.2 58.6021 88.3133 58.8554 88.46L58.8954 88.44V84.36H62.0954V97.82H59.0554ZM57.0954 95.28C57.6287 95.28 58.0621 95.1133 58.3954 94.78C58.7287 94.4467 58.8954 93.8933 58.8954 93.12V91.02C58.4021 90.82 57.8221 90.72 57.1554 90.72C56.5287 90.72 56.0754 90.8733 55.7954 91.18C55.5287 91.4733 55.3954 92.0733 55.3954 92.98C55.3954 93.7533 55.5021 94.3333 55.7154 94.72C55.9421 95.0933 56.4021 95.28 57.0954 95.28ZM67.5188 84.46C67.5588 84.94 67.5788 85.34 67.5788 85.66C67.5788 85.8467 67.5722 86.04 67.5588 86.24C67.5588 86.4267 67.5455 86.64 67.5188 86.88C67.2388 86.9333 66.9655 86.9733 66.6988 87C66.4322 87.0267 66.1655 87.04 65.8988 87.04C65.6455 87.04 65.3855 87.0267 65.1188 87C64.8655 86.9733 64.6055 86.9333 64.3388 86.88C64.3122 86.6533 64.2922 86.4467 64.2788 86.26C64.2655 86.06 64.2588 85.8667 64.2588 85.68C64.2588 85.5067 64.2655 85.32 64.2788 85.12C64.2922 84.92 64.3122 84.7 64.3388 84.46C64.6055 84.3933 64.8722 84.3533 65.1388 84.34C65.4188 84.3133 65.6922 84.3 65.9588 84.3C66.2122 84.3 66.4655 84.3133 66.7188 84.34C66.9855 84.3533 67.2522 84.3933 67.5188 84.46ZM67.5188 97.82H64.3188V88.08H67.5188V97.82ZM72.9332 97.82H69.7332V88.08H72.3332L72.5932 90.08H72.6532C72.7732 89.3333 73.0599 88.8 73.5132 88.48C73.9665 88.1467 74.6399 87.98 75.5332 87.98C75.8932 87.98 76.2199 88 76.5132 88.04C76.8065 88.0667 77.0532 88.0933 77.2532 88.12V91.24L77.2132 91.28C76.9999 91.2267 76.7532 91.18 76.4732 91.14C76.2065 91.1 75.8999 91.08 75.5532 91.08C75.0599 91.08 74.6132 91.16 74.2132 91.32C73.8265 91.48 73.5199 91.7933 73.2932 92.26C73.0799 92.7133 72.9732 93.3933 72.9732 94.3L72.9332 97.82ZM87.239 97.5C86.8657 97.6333 86.3457 97.7533 85.679 97.86C85.0257 97.9533 84.2457 98 83.339 98C82.1923 98 81.2123 97.8533 80.399 97.56C79.599 97.2533 78.9923 96.74 78.579 96.02C78.1657 95.2867 77.959 94.2733 77.959 92.98C77.959 91.22 78.359 89.9467 79.159 89.16C79.9723 88.3733 81.2257 87.98 82.919 87.98C84.1323 87.98 85.0857 88.1533 85.779 88.5C86.4857 88.8467 86.9857 89.34 87.279 89.98C87.5857 90.6067 87.739 91.3533 87.739 92.22C87.739 92.4733 87.7257 92.7467 87.699 93.04C87.6857 93.3333 87.6523 93.62 87.599 93.9L87.519 93.98H80.939C81.0323 94.5667 81.3057 94.9533 81.759 95.14C82.2257 95.3267 82.979 95.42 84.019 95.42C84.7123 95.42 85.2857 95.4067 85.739 95.38C86.2057 95.34 86.679 95.2867 87.159 95.22L87.239 95.28V97.5ZM84.959 91.88C84.959 91.56 84.9057 91.2867 84.799 91.06C84.7057 90.82 84.5123 90.64 84.219 90.52C83.9257 90.3867 83.4923 90.32 82.919 90.32C82.079 90.32 81.5257 90.4667 81.259 90.76C81.0057 91.04 80.879 91.4133 80.879 91.88H84.959ZM97.0202 95V97.6C96.6869 97.7333 96.1936 97.8333 95.5402 97.9C94.8869 97.9667 94.1936 98 93.4602 98C92.4069 98 91.5269 97.8533 90.8202 97.56C90.1269 97.2667 89.6069 96.76 89.2602 96.04C88.9269 95.32 88.7536 94.32 88.7402 93.04C88.7402 91.72 88.9202 90.6933 89.2802 89.96C89.6536 89.2267 90.1936 88.7133 90.9002 88.42C91.6069 88.1267 92.4536 87.98 93.4402 87.98C94.0269 87.98 94.6469 88.02 95.3002 88.1C95.9536 88.18 96.4869 88.2867 96.9002 88.42L96.9202 91.1L96.8602 91.14C96.4602 91.06 96.0336 91 95.5802 90.96C95.1269 90.92 94.6802 90.9 94.2402 90.9C93.3469 90.9 92.7269 91.0667 92.3802 91.4C92.0336 91.7333 91.8602 92.2933 91.8602 93.08C91.8602 93.68 91.9336 94.1267 92.0802 94.42C92.2269 94.7133 92.4736 94.9067 92.8202 95C93.1669 95.0933 93.6402 95.14 94.2402 95.14C94.7069 95.14 95.1536 95.12 95.5802 95.08C96.0069 95.04 96.4602 94.9933 96.9402 94.94L97.0202 95ZM99.0152 94.9V90.7H97.8152V88.1H99.3152L99.9152 85.72H102.215V88.1H104.395V90.7H102.215V94.2C102.215 94.5733 102.262 94.8333 102.355 94.98C102.449 95.1133 102.662 95.18 102.995 95.18C103.209 95.18 103.435 95.1733 103.675 95.16C103.915 95.1333 104.155 95.1067 104.395 95.08L104.455 95.12V97.72C103.815 97.9067 102.969 98 101.915 98C100.862 98 100.115 97.76 99.6752 97.28C99.2352 96.8 99.0152 96.0067 99.0152 94.9ZM109.957 87.98C111.237 87.98 112.27 88.1133 113.057 88.38C113.843 88.6467 114.417 89.14 114.777 89.86C115.15 90.5667 115.337 91.5933 115.337 92.94V97.82H112.437L112.337 96.9H112.277C112.023 97.2333 111.63 97.5 111.097 97.7C110.563 97.9 109.87 98 109.017 98C106.71 98 105.557 96.92 105.557 94.76C105.557 93.84 105.857 93.12 106.457 92.6C107.07 92.0667 108.03 91.8 109.337 91.8H112.297C112.203 91.24 111.963 90.8667 111.577 90.68C111.19 90.48 110.53 90.38 109.597 90.38C109.01 90.38 108.43 90.4267 107.857 90.52C107.297 90.6 106.803 90.6933 106.377 90.8L106.317 90.76L106.337 88.44C106.603 88.36 106.943 88.2867 107.357 88.22C107.77 88.14 108.203 88.08 108.657 88.04C109.123 88 109.557 87.98 109.957 87.98ZM109.837 95.64C110.663 95.64 111.283 95.54 111.697 95.34C112.11 95.1267 112.323 94.7933 112.337 94.34V93.84H110.077C109.49 93.84 109.077 93.9267 108.837 94.1C108.61 94.26 108.497 94.48 108.497 94.76C108.497 95.0933 108.617 95.3267 108.857 95.46C109.097 95.58 109.423 95.64 109.837 95.64ZM129.529 87.98C130.515 87.98 131.295 88.3067 131.869 88.96C132.455 89.6133 132.749 90.7467 132.749 92.36V97.82H129.549L129.529 92.76C129.529 92.1067 129.429 91.6333 129.229 91.34C129.042 91.0467 128.669 90.9 128.109 90.9C127.549 90.9 127.169 91.0467 126.969 91.34C126.782 91.6333 126.689 92.1067 126.689 92.76V97.82H123.489L123.469 92.76C123.469 92.1067 123.369 91.6333 123.169 91.34C122.982 91.0467 122.609 90.9 122.049 90.9C121.489 90.9 121.109 91.0467 120.909 91.34C120.722 91.6333 120.629 92.1067 120.629 92.76V97.82H117.429V88.08H120.469L120.629 89.86H120.689C120.862 89.2733 121.162 88.8133 121.589 88.48C122.029 88.1467 122.649 87.98 123.449 87.98C124.249 87.98 124.875 88.1467 125.329 88.48C125.795 88.8133 126.095 89.2733 126.229 89.86H126.289C126.462 89.26 126.795 88.8 127.289 88.48C127.795 88.1467 128.542 87.98 129.529 87.98ZM143.528 97.5C143.155 97.6333 142.635 97.7533 141.968 97.86C141.315 97.9533 140.535 98 139.628 98C138.481 98 137.501 97.8533 136.688 97.56C135.888 97.2533 135.281 96.74 134.868 96.02C134.455 95.2867 134.248 94.2733 134.248 92.98C134.248 91.22 134.648 89.9467 135.448 89.16C136.261 88.3733 137.515 87.98 139.208 87.98C140.421 87.98 141.375 88.1533 142.068 88.5C142.775 88.8467 143.275 89.34 143.568 89.98C143.875 90.6067 144.028 91.3533 144.028 92.22C144.028 92.4733 144.015 92.7467 143.988 93.04C143.975 93.3333 143.941 93.62 143.888 93.9L143.808 93.98H137.228C137.321 94.5667 137.595 94.9533 138.048 95.14C138.515 95.3267 139.268 95.42 140.308 95.42C141.001 95.42 141.575 95.4067 142.028 95.38C142.495 95.34 142.968 95.2867 143.448 95.22L143.528 95.28V97.5ZM141.248 91.88C141.248 91.56 141.195 91.2867 141.088 91.06C140.995 90.82 140.801 90.64 140.508 90.52C140.215 90.3867 139.781 90.32 139.208 90.32C138.368 90.32 137.815 90.4667 137.548 90.76C137.295 91.04 137.168 91.4133 137.168 91.88H141.248ZM148.929 97.82H145.729V88.08H148.769L148.929 89.86H148.989C149.176 89.26 149.509 88.8 149.989 88.48C150.469 88.1467 151.136 87.98 151.989 87.98C153.149 87.98 154.003 88.3067 154.549 88.96C155.109 89.6133 155.389 90.7467 155.389 92.36V97.82H152.189L152.169 92.98C152.169 92.2333 152.056 91.7 151.829 91.38C151.603 91.06 151.176 90.9 150.549 90.9C149.963 90.9 149.549 91.0467 149.309 91.34C149.069 91.62 148.943 92.1067 148.929 92.8V97.82ZM157.785 94.9V90.7H156.585V88.1H158.085L158.685 85.72H160.985V88.1H163.165V90.7H160.985V94.2C160.985 94.5733 161.031 94.8333 161.125 94.98C161.218 95.1133 161.431 95.18 161.765 95.18C161.978 95.18 162.205 95.1733 162.445 95.16C162.685 95.1333 162.925 95.1067 163.165 95.08L163.225 95.12V97.72C162.585 97.9067 161.738 98 160.685 98C159.631 98 158.885 97.76 158.445 97.28C158.005 96.8 157.785 96.0067 157.785 94.9ZM173.606 97.5C173.233 97.6333 172.713 97.7533 172.046 97.86C171.393 97.9533 170.613 98 169.706 98C168.56 98 167.58 97.8533 166.766 97.56C165.966 97.2533 165.36 96.74 164.946 96.02C164.533 95.2867 164.326 94.2733 164.326 92.98C164.326 91.22 164.726 89.9467 165.526 89.16C166.34 88.3733 167.593 87.98 169.286 87.98C170.5 87.98 171.453 88.1533 172.146 88.5C172.853 88.8467 173.353 89.34 173.646 89.98C173.953 90.6067 174.106 91.3533 174.106 92.22C174.106 92.4733 174.093 92.7467 174.066 93.04C174.053 93.3333 174.02 93.62 173.966 93.9L173.886 93.98H167.306C167.4 94.5667 167.673 94.9533 168.126 95.14C168.593 95.3267 169.346 95.42 170.386 95.42C171.08 95.42 171.653 95.4067 172.106 95.38C172.573 95.34 173.046 95.2867 173.526 95.22L173.606 95.28V97.5ZM171.326 91.88C171.326 91.56 171.273 91.2867 171.166 91.06C171.073 90.82 170.88 90.64 170.586 90.52C170.293 90.3867 169.86 90.32 169.286 90.32C168.446 90.32 167.893 90.4667 167.626 90.76C167.373 91.04 167.246 91.4133 167.246 91.88H171.326ZM185.004 101.54H181.804V88.08H184.844L185.004 89.46V89.58H185.044C185.27 89.0333 185.59 88.6333 186.004 88.38C186.43 88.1133 187.044 87.98 187.844 87.98C189.137 87.98 190.084 88.36 190.684 89.12C191.297 89.8667 191.61 91 191.624 92.52C191.65 93.8667 191.51 94.9467 191.204 95.76C190.91 96.56 190.45 97.1333 189.824 97.48C189.197 97.8267 188.397 98 187.424 98C186.917 98 186.457 97.9533 186.044 97.86C185.644 97.7667 185.31 97.6533 185.044 97.52L185.004 97.54V101.54ZM186.804 90.7C186.27 90.7 185.837 90.8667 185.504 91.2C185.17 91.52 185.004 92.0733 185.004 92.86V94.96C185.497 95.16 186.077 95.26 186.744 95.26C187.37 95.26 187.817 95.1133 188.084 94.82C188.364 94.5133 188.504 93.9067 188.504 93C188.504 92.2133 188.397 91.6333 188.184 91.26C187.97 90.8867 187.51 90.7 186.804 90.7ZM197.027 87.98C198.307 87.98 199.34 88.1133 200.127 88.38C200.914 88.6467 201.487 89.14 201.847 89.86C202.22 90.5667 202.407 91.5933 202.407 92.94V97.82H199.507L199.407 96.9H199.347C199.094 97.2333 198.7 97.5 198.167 97.7C197.634 97.9 196.94 98 196.087 98C193.78 98 192.627 96.92 192.627 94.76C192.627 93.84 192.927 93.12 193.527 92.6C194.14 92.0667 195.1 91.8 196.407 91.8H199.367C199.274 91.24 199.034 90.8667 198.647 90.68C198.26 90.48 197.6 90.38 196.667 90.38C196.08 90.38 195.5 90.4267 194.927 90.52C194.367 90.6 193.874 90.6933 193.447 90.8L193.387 90.76L193.407 88.44C193.674 88.36 194.014 88.2867 194.427 88.22C194.84 88.14 195.274 88.08 195.727 88.04C196.194 88 196.627 87.98 197.027 87.98ZM196.907 95.64C197.734 95.64 198.354 95.54 198.767 95.34C199.18 95.1267 199.394 94.7933 199.407 94.34V93.84H197.147C196.56 93.84 196.147 93.9267 195.907 94.1C195.68 94.26 195.567 94.48 195.567 94.76C195.567 95.0933 195.687 95.3267 195.927 95.46C196.167 95.58 196.494 95.64 196.907 95.64ZM207.699 97.82H204.499V88.08H207.099L207.359 90.08H207.419C207.539 89.3333 207.825 88.8 208.279 88.48C208.732 88.1467 209.405 87.98 210.299 87.98C210.659 87.98 210.985 88 211.279 88.04C211.572 88.0667 211.819 88.0933 212.019 88.12V91.24L211.979 91.28C211.765 91.2267 211.519 91.18 211.239 91.14C210.972 91.1 210.665 91.08 210.319 91.08C209.825 91.08 209.379 91.16 208.979 91.32C208.592 91.48 208.285 91.7933 208.059 92.26C207.845 92.7133 207.739 93.3933 207.739 94.3L207.699 97.82ZM217.125 87.98C218.405 87.98 219.438 88.1133 220.225 88.38C221.011 88.6467 221.585 89.14 221.945 89.86C222.318 90.5667 222.505 91.5933 222.505 92.94V97.82H219.605L219.505 96.9H219.445C219.191 97.2333 218.798 97.5 218.265 97.7C217.731 97.9 217.038 98 216.185 98C213.878 98 212.725 96.92 212.725 94.76C212.725 93.84 213.025 93.12 213.625 92.6C214.238 92.0667 215.198 91.8 216.505 91.8H219.465C219.371 91.24 219.131 90.8667 218.745 90.68C218.358 90.48 217.698 90.38 216.765 90.38C216.178 90.38 215.598 90.4267 215.025 90.52C214.465 90.6 213.971 90.6933 213.545 90.8L213.485 90.76L213.505 88.44C213.771 88.36 214.111 88.2867 214.525 88.22C214.938 88.14 215.371 88.08 215.825 88.04C216.291 88 216.725 87.98 217.125 87.98ZM217.005 95.64C217.831 95.64 218.451 95.54 218.865 95.34C219.278 95.1267 219.491 94.7933 219.505 94.34V93.84H217.245C216.658 93.84 216.245 93.9267 216.005 94.1C215.778 94.26 215.665 94.48 215.665 94.76C215.665 95.0933 215.785 95.3267 216.025 95.46C216.265 95.58 216.591 95.64 217.005 95.64ZM230.793 94.9V90.7H229.593V88.1H231.093L231.693 85.72H233.993V88.1H236.173V90.7H233.993V94.2C233.993 94.5733 234.039 94.8333 234.133 94.98C234.226 95.1133 234.439 95.18 234.773 95.18C234.986 95.18 235.213 95.1733 235.453 95.16C235.693 95.1333 235.933 95.1067 236.173 95.08L236.233 95.12V97.72C235.593 97.9067 234.746 98 233.693 98C232.639 98 231.893 97.76 231.453 97.28C231.013 96.8 230.793 96.0067 230.793 94.9ZM241.054 97.82H237.854V88.08H241.054V97.82ZM243.034 84.2L240.594 86.98H238.034L240.074 84.06H243.034V84.2ZM246.628 94.98C246.655 95.2733 246.675 95.5267 246.688 95.74C246.702 95.94 246.708 96.1533 246.708 96.38C246.708 96.5933 246.702 96.8133 246.688 97.04C246.675 97.2533 246.655 97.5 246.628 97.78C246.295 97.8333 245.962 97.88 245.628 97.92C245.295 97.96 244.962 97.98 244.628 97.98C244.308 97.98 243.988 97.96 243.668 97.92C243.348 97.88 243.022 97.8333 242.688 97.78C242.648 97.5133 242.622 97.2733 242.608 97.06C242.595 96.8333 242.588 96.6133 242.588 96.4C242.588 96.2 242.595 95.9867 242.608 95.76C242.622 95.5333 242.648 95.2733 242.688 94.98C243.355 94.86 244.015 94.8 244.668 94.8C245.322 94.8 245.975 94.86 246.628 94.98Z" fill="black"/>
</svg>
