<svg width="98" height="32" viewBox="0 0 98 32" fill="none" xmlns="http://www.w3.org/2000/svg">
<path d="M9.555 1.385L6.6 10.865H3.3L0.495 1.385H3.18C3.34 1.885 3.51 2.455 3.69 3.095C3.87 3.735 4.045 4.39 4.215 5.06C4.395 5.72 4.55 6.34 4.68 6.92C4.82 7.49 4.925 7.965 4.995 8.345H5.055C5.125 7.965 5.225 7.49 5.355 6.92C5.495 6.34 5.65 5.72 5.82 5.06C6 4.4 6.18 3.75 6.36 3.11C6.54 2.47 6.71 1.895 6.87 1.385H9.555ZM17.3692 10.625C17.0892 10.725 16.6992 10.815 16.1992 10.895C15.7092 10.965 15.1242 11 14.4442 11C13.5842 11 12.8492 10.89 12.2392 10.67C11.6392 10.44 11.1842 10.055 10.8742 9.515C10.5642 8.965 10.4092 8.205 10.4092 7.235C10.4092 5.915 10.7092 4.96 11.3092 4.37C11.9192 3.78 12.8592 3.485 14.1292 3.485C15.0392 3.485 15.7542 3.615 16.2742 3.875C16.8042 4.135 17.1792 4.505 17.3992 4.985C17.6292 5.455 17.7442 6.015 17.7442 6.665C17.7442 6.855 17.7342 7.06 17.7142 7.28C17.7042 7.5 17.6792 7.715 17.6392 7.925L17.5792 7.985H12.6442C12.7142 8.425 12.9192 8.715 13.2592 8.855C13.6092 8.995 14.1742 9.065 14.9542 9.065C15.4742 9.065 15.9042 9.055 16.2442 9.035C16.5942 9.005 16.9492 8.965 17.3092 8.915L17.3692 8.96V10.625ZM15.6592 6.41C15.6592 6.17 15.6192 5.965 15.5392 5.795C15.4692 5.615 15.3242 5.48 15.1042 5.39C14.8842 5.29 14.5592 5.24 14.1292 5.24C13.4992 5.24 13.0842 5.35 12.8842 5.57C12.6942 5.78 12.5992 6.06 12.5992 6.41H15.6592ZM21.4201 10.865H19.0201V3.56H20.9701L21.1651 5.06H21.2101C21.3001 4.5 21.5151 4.1 21.8551 3.86C22.1951 3.61 22.7001 3.485 23.3701 3.485C23.6401 3.485 23.8851 3.5 24.1051 3.53C24.3251 3.55 24.5101 3.57 24.6601 3.59V5.93L24.6301 5.96C24.4701 5.92 24.2851 5.885 24.0751 5.855C23.8751 5.825 23.6451 5.81 23.3851 5.81C23.0151 5.81 22.6801 5.87 22.3801 5.99C22.0901 6.11 21.8601 6.345 21.6901 6.695C21.5301 7.035 21.4501 7.545 21.4501 8.225L21.4201 10.865ZM27.9795 0.844999C28.0095 1.205 28.0245 1.505 28.0245 1.745C28.0245 1.885 28.0195 2.03 28.0095 2.18C28.0095 2.32 27.9995 2.48 27.9795 2.66C27.7695 2.7 27.5645 2.73 27.3645 2.75C27.1645 2.77 26.9645 2.78 26.7645 2.78C26.5745 2.78 26.3795 2.77 26.1795 2.75C25.9895 2.73 25.7945 2.7 25.5945 2.66C25.5745 2.49 25.5595 2.335 25.5495 2.195C25.5395 2.045 25.5345 1.9 25.5345 1.76C25.5345 1.63 25.5395 1.49 25.5495 1.34C25.5595 1.19 25.5745 1.025 25.5945 0.844999C25.7945 0.794999 25.9945 0.764999 26.1945 0.755C26.4045 0.734999 26.6095 0.724999 26.8095 0.724999C26.9995 0.724999 27.1895 0.734999 27.3795 0.755C27.5795 0.764999 27.7795 0.794999 27.9795 0.844999ZM27.9795 10.865H25.5795V3.56H27.9795V10.865ZM29.0402 5.51V3.56H30.1052V3.185C30.1052 2.195 30.3352 1.485 30.7952 1.055C31.2552 0.615 31.9402 0.395 32.8502 0.395C33.1702 0.395 33.4652 0.425 33.7352 0.484999C34.0052 0.534999 34.2402 0.595 34.4402 0.665V2.345L34.3952 2.375C34.2152 2.355 34.0352 2.34 33.8552 2.33C33.6752 2.31 33.5052 2.3 33.3452 2.3C33.0052 2.3 32.7652 2.365 32.6252 2.495C32.4952 2.615 32.4302 2.805 32.4302 3.065V3.56H34.4402V5.51H32.4302V10.865H30.1052V5.51H29.0402ZM37.9111 0.844999C37.9411 1.205 37.9561 1.505 37.9561 1.745C37.9561 1.885 37.9511 2.03 37.9411 2.18C37.9411 2.32 37.9311 2.48 37.9111 2.66C37.7011 2.7 37.4961 2.73 37.2961 2.75C37.0961 2.77 36.8961 2.78 36.6961 2.78C36.5061 2.78 36.3111 2.77 36.1111 2.75C35.9211 2.73 35.7261 2.7 35.5261 2.66C35.5061 2.49 35.4911 2.335 35.4811 2.195C35.4711 2.045 35.4661 1.9 35.4661 1.76C35.4661 1.63 35.4711 1.49 35.4811 1.34C35.4911 1.19 35.5061 1.025 35.5261 0.844999C35.7261 0.794999 35.9261 0.764999 36.1261 0.755C36.3361 0.734999 36.5411 0.724999 36.7411 0.724999C36.9311 0.724999 37.1211 0.734999 37.3111 0.755C37.5111 0.764999 37.7111 0.794999 37.9111 0.844999ZM37.9111 10.865H35.5111V3.56H37.9111V10.865ZM45.2569 8.75V10.7C45.0069 10.8 44.6369 10.875 44.1469 10.925C43.6569 10.975 43.1369 11 42.5869 11C41.7969 11 41.1369 10.89 40.6069 10.67C40.0869 10.45 39.6969 10.07 39.4369 9.53C39.1869 8.99 39.0569 8.24 39.0469 7.28C39.0469 6.29 39.1819 5.52 39.4519 4.97C39.7319 4.42 40.1369 4.035 40.6669 3.815C41.1969 3.595 41.8319 3.485 42.5719 3.485C43.0119 3.485 43.4769 3.515 43.9669 3.575C44.4569 3.635 44.8569 3.715 45.1669 3.815L45.1819 5.825L45.1369 5.855C44.8369 5.795 44.5169 5.75 44.1769 5.72C43.8369 5.69 43.5019 5.675 43.1719 5.675C42.5019 5.675 42.0369 5.8 41.7769 6.05C41.5169 6.3 41.3869 6.72 41.3869 7.31C41.3869 7.76 41.4419 8.095 41.5519 8.315C41.6619 8.535 41.8469 8.68 42.1069 8.75C42.3669 8.82 42.7219 8.855 43.1719 8.855C43.5219 8.855 43.8569 8.84 44.1769 8.81C44.4969 8.78 44.8369 8.745 45.1969 8.705L45.2569 8.75ZM49.3781 3.485C50.3381 3.485 51.1131 3.585 51.7031 3.785C52.2931 3.985 52.7231 4.355 52.9931 4.895C53.2731 5.425 53.4131 6.195 53.4131 7.205V10.865H51.2381L51.1631 10.175H51.1181C50.9281 10.425 50.6331 10.625 50.2331 10.775C49.8331 10.925 49.3131 11 48.6731 11C46.9431 11 46.0781 10.19 46.0781 8.57C46.0781 7.88 46.3031 7.34 46.7531 6.95C47.2131 6.55 47.9331 6.35 48.9131 6.35H51.1331C51.0631 5.93 50.8831 5.65 50.5931 5.51C50.3031 5.36 49.8081 5.285 49.1081 5.285C48.6681 5.285 48.2331 5.32 47.8031 5.39C47.3831 5.45 47.0131 5.52 46.6931 5.6L46.6481 5.57L46.6631 3.83C46.8631 3.77 47.1181 3.715 47.4281 3.665C47.7381 3.605 48.0631 3.56 48.4031 3.53C48.7531 3.5 49.0781 3.485 49.3781 3.485ZM49.2881 9.23C49.9081 9.23 50.3731 9.155 50.6831 9.005C50.9931 8.845 51.1531 8.595 51.1631 8.255V7.88H49.4681C49.0281 7.88 48.7181 7.945 48.5381 8.075C48.3681 8.195 48.2831 8.36 48.2831 8.57C48.2831 8.82 48.3731 8.995 48.5531 9.095C48.7331 9.185 48.9781 9.23 49.2881 9.23ZM59.542 10.865L59.452 9.8H59.392C59.222 10.2 58.977 10.5 58.657 10.7C58.347 10.9 57.892 11 57.292 11C56.322 11 55.612 10.72 55.162 10.16C54.712 9.59 54.477 8.735 54.457 7.595C54.447 6.575 54.552 5.765 54.772 5.165C54.992 4.565 55.337 4.135 55.807 3.875C56.277 3.615 56.877 3.485 57.607 3.485C57.987 3.485 58.332 3.52 58.642 3.59C58.952 3.65 59.202 3.735 59.392 3.845L59.422 3.83V0.769999H61.822V10.865H59.542ZM58.072 8.96C58.472 8.96 58.797 8.835 59.047 8.585C59.297 8.335 59.422 7.92 59.422 7.34V5.765C59.052 5.615 58.617 5.54 58.117 5.54C57.647 5.54 57.307 5.655 57.097 5.885C56.897 6.105 56.797 6.555 56.797 7.235C56.797 7.815 56.877 8.25 57.037 8.54C57.207 8.82 57.552 8.96 58.072 8.96ZM66.3996 3.485C67.3596 3.485 68.1346 3.585 68.7246 3.785C69.3146 3.985 69.7446 4.355 70.0146 4.895C70.2946 5.425 70.4346 6.195 70.4346 7.205V10.865H68.2596L68.1846 10.175H68.1396C67.9496 10.425 67.6546 10.625 67.2546 10.775C66.8546 10.925 66.3346 11 65.6946 11C63.9646 11 63.0996 10.19 63.0996 8.57C63.0996 7.88 63.3246 7.34 63.7746 6.95C64.2346 6.55 64.9546 6.35 65.9346 6.35H68.1546C68.0846 5.93 67.9046 5.65 67.6146 5.51C67.3246 5.36 66.8296 5.285 66.1296 5.285C65.6896 5.285 65.2546 5.32 64.8246 5.39C64.4046 5.45 64.0346 5.52 63.7146 5.6L63.6696 5.57L63.6846 3.83C63.8846 3.77 64.1396 3.715 64.4496 3.665C64.7596 3.605 65.0846 3.56 65.4246 3.53C65.7746 3.5 66.0996 3.485 66.3996 3.485ZM66.3096 9.23C66.9296 9.23 67.3946 9.155 67.7046 9.005C68.0146 8.845 68.1746 8.595 68.1846 8.255V7.88H66.4896C66.0496 7.88 65.7396 7.945 65.5596 8.075C65.3896 8.195 65.3046 8.36 65.3046 8.57C65.3046 8.82 65.3946 8.995 65.5746 9.095C65.7546 9.185 65.9996 9.23 66.3096 9.23ZM77.3406 13.625L78.4956 10.88L75.6006 3.59V3.56H78.2856C78.5656 4.35 78.8256 5.145 79.0656 5.945C79.3156 6.745 79.5156 7.565 79.6656 8.405H79.6956C79.8456 7.575 80.0356 6.76 80.2656 5.96C80.5056 5.16 80.7756 4.36 81.0756 3.56H83.6556V3.605L79.8006 13.655H77.3406V13.625ZM3.3 31.865H0.9V22.37H5.13C6.08 22.37 6.84 22.485 7.41 22.715C7.98 22.945 8.39 23.32 8.64 23.84C8.89 24.36 9.015 25.065 9.015 25.955C9.015 26.795 8.89 27.48 8.64 28.01C8.39 28.53 7.98 28.915 7.41 29.165C6.84 29.415 6.08 29.54 5.13 29.54H3.3V31.865ZM4.74 24.335H3.3V27.575H4.74C5.45 27.575 5.925 27.455 6.165 27.215C6.405 26.975 6.525 26.555 6.525 25.955C6.525 25.385 6.405 24.975 6.165 24.725C5.925 24.465 5.45 24.335 4.74 24.335ZM16.7246 31.625C16.4446 31.725 16.0546 31.815 15.5546 31.895C15.0646 31.965 14.4796 32 13.7996 32C12.9396 32 12.2046 31.89 11.5946 31.67C10.9946 31.44 10.5396 31.055 10.2296 30.515C9.91965 29.965 9.76465 29.205 9.76465 28.235C9.76465 26.915 10.0646 25.96 10.6646 25.37C11.2746 24.78 12.2146 24.485 13.4846 24.485C14.3946 24.485 15.1096 24.615 15.6296 24.875C16.1596 25.135 16.5346 25.505 16.7546 25.985C16.9846 26.455 17.0996 27.015 17.0996 27.665C17.0996 27.855 17.0896 28.06 17.0696 28.28C17.0596 28.5 17.0346 28.715 16.9946 28.925L16.9346 28.985H11.9996C12.0696 29.425 12.2746 29.715 12.6146 29.855C12.9646 29.995 13.5296 30.065 14.3096 30.065C14.8296 30.065 15.2596 30.055 15.5996 30.035C15.9496 30.005 16.3046 29.965 16.6646 29.915L16.7246 29.96V31.625ZM15.0146 27.41C15.0146 27.17 14.9746 26.965 14.8946 26.795C14.8246 26.615 14.6796 26.48 14.4596 26.39C14.2396 26.29 13.9146 26.24 13.4846 26.24C12.8546 26.24 12.4396 26.35 12.2396 26.57C12.0496 26.78 11.9546 27.06 11.9546 27.41H15.0146ZM20.7756 31.865H18.3756V24.56H20.3256L20.5206 26.06H20.5656C20.6556 25.5 20.8706 25.1 21.2106 24.86C21.5506 24.61 22.0556 24.485 22.7256 24.485C22.9956 24.485 23.2406 24.5 23.4606 24.53C23.6806 24.55 23.8656 24.57 24.0156 24.59V26.93L23.9856 26.96C23.8256 26.92 23.6406 26.885 23.4306 26.855C23.2306 26.825 23.0006 26.81 22.7406 26.81C22.3706 26.81 22.0356 26.87 21.7356 26.99C21.4456 27.11 21.2156 27.345 21.0456 27.695C20.8856 28.035 20.8056 28.545 20.8056 29.225L20.7756 31.865ZM24.7399 29.795C25.5199 30.015 26.3849 30.125 27.3349 30.125C27.7949 30.125 28.1399 30.11 28.3699 30.08C28.5999 30.05 28.7549 30 28.8349 29.93C28.9149 29.86 28.9549 29.765 28.9549 29.645C28.9549 29.475 28.8899 29.37 28.7599 29.33C28.6399 29.29 28.3949 29.235 28.0249 29.165L26.8399 28.94C26.0799 28.79 25.5299 28.555 25.1899 28.235C24.8599 27.905 24.6949 27.415 24.6949 26.765C24.6949 25.885 24.9549 25.285 25.4749 24.965C26.0049 24.645 26.8449 24.485 27.9949 24.485C28.6849 24.485 29.2899 24.525 29.8099 24.605C30.3399 24.675 30.7799 24.765 31.1299 24.875L31.0999 26.69L31.0549 26.735C30.2449 26.475 29.3599 26.345 28.3999 26.345C27.9299 26.345 27.5999 26.38 27.4099 26.45C27.2299 26.51 27.1399 26.635 27.1399 26.825C27.1399 26.925 27.1649 27.005 27.2149 27.065C27.2749 27.125 27.4049 27.185 27.6049 27.245C27.8049 27.295 28.1199 27.36 28.5499 27.44L29.6449 27.65C30.2549 27.78 30.7049 27.995 30.9949 28.295C31.2849 28.595 31.4299 29.07 31.4299 29.72C31.4299 30.29 31.3249 30.745 31.1149 31.085C30.9049 31.415 30.5499 31.65 30.0499 31.79C29.5599 31.93 28.8799 32 28.0099 32C27.3499 32 26.7399 31.97 26.1799 31.91C25.6299 31.84 25.1349 31.76 24.6949 31.67V29.825L24.7399 29.795ZM32.1768 28.265C32.1768 26.925 32.4618 25.96 33.0318 25.37C33.6018 24.78 34.5668 24.485 35.9268 24.485C36.8368 24.485 37.5668 24.615 38.1168 24.875C38.6668 25.135 39.0618 25.545 39.3018 26.105C39.5518 26.655 39.6768 27.375 39.6768 28.265C39.6768 29.145 39.5518 29.86 39.3018 30.41C39.0618 30.96 38.6668 31.365 38.1168 31.625C37.5668 31.875 36.8368 32 35.9268 32C34.5668 32 33.6018 31.71 33.0318 31.13C32.4618 30.54 32.1768 29.585 32.1768 28.265ZM35.9268 29.945C36.5068 29.945 36.8968 29.82 37.0968 29.57C37.3068 29.31 37.4118 28.86 37.4118 28.22C37.4118 27.61 37.3068 27.175 37.0968 26.915C36.8968 26.645 36.5068 26.51 35.9268 26.51C35.3668 26.51 34.9768 26.645 34.7568 26.915C34.5468 27.175 34.4418 27.61 34.4418 28.22C34.4418 28.86 34.5468 29.31 34.7568 29.57C34.9768 29.82 35.3668 29.945 35.9268 29.945ZM43.3488 31.865H40.9488V24.56H43.2288L43.3488 25.895H43.3938C43.5338 25.445 43.7838 25.1 44.1438 24.86C44.5038 24.61 45.0038 24.485 45.6438 24.485C46.5138 24.485 47.1538 24.73 47.5638 25.22C47.9838 25.71 48.1938 26.56 48.1938 27.77V31.865H45.7938L45.7788 28.235C45.7788 27.675 45.6938 27.275 45.5238 27.035C45.3538 26.795 45.0338 26.675 44.5638 26.675C44.1238 26.675 43.8138 26.785 43.6338 27.005C43.4538 27.215 43.3588 27.58 43.3488 28.1V31.865ZM52.6154 24.485C53.5754 24.485 54.3504 24.585 54.9404 24.785C55.5304 24.985 55.9604 25.355 56.2304 25.895C56.5104 26.425 56.6504 27.195 56.6504 28.205V31.865H54.4754L54.4004 31.175H54.3554C54.1654 31.425 53.8704 31.625 53.4704 31.775C53.0704 31.925 52.5504 32 51.9104 32C50.1804 32 49.3154 31.19 49.3154 29.57C49.3154 28.88 49.5404 28.34 49.9904 27.95C50.4504 27.55 51.1704 27.35 52.1504 27.35H54.3704C54.3004 26.93 54.1204 26.65 53.8304 26.51C53.5404 26.36 53.0454 26.285 52.3454 26.285C51.9054 26.285 51.4704 26.32 51.0404 26.39C50.6204 26.45 50.2504 26.52 49.9304 26.6L49.8854 26.57L49.9004 24.83C50.1004 24.77 50.3554 24.715 50.6654 24.665C50.9754 24.605 51.3004 24.56 51.6404 24.53C51.9904 24.5 52.3154 24.485 52.6154 24.485ZM52.5254 30.23C53.1454 30.23 53.6104 30.155 53.9204 30.005C54.2304 29.845 54.3904 29.595 54.4004 29.255V28.88H52.7054C52.2654 28.88 51.9554 28.945 51.7754 29.075C51.6054 29.195 51.5204 29.36 51.5204 29.57C51.5204 29.82 51.6104 29.995 51.7904 30.095C51.9704 30.185 52.2154 30.23 52.5254 30.23ZM60.6193 31.865H58.2193V21.77H60.6193V31.865ZM64.6884 21.845C64.7184 22.205 64.7334 22.505 64.7334 22.745C64.7334 22.885 64.7284 23.03 64.7184 23.18C64.7184 23.32 64.7084 23.48 64.6884 23.66C64.4784 23.7 64.2734 23.73 64.0734 23.75C63.8734 23.77 63.6734 23.78 63.4734 23.78C63.2834 23.78 63.0884 23.77 62.8884 23.75C62.6984 23.73 62.5034 23.7 62.3034 23.66C62.2834 23.49 62.2684 23.335 62.2584 23.195C62.2484 23.045 62.2434 22.9 62.2434 22.76C62.2434 22.63 62.2484 22.49 62.2584 22.34C62.2684 22.19 62.2834 22.025 62.3034 21.845C62.5034 21.795 62.7034 21.765 62.9034 21.755C63.1134 21.735 63.3184 21.725 63.5184 21.725C63.7084 21.725 63.8984 21.735 64.0884 21.755C64.2884 21.765 64.4884 21.795 64.6884 21.845ZM64.6884 31.865H62.2884V24.56H64.6884V31.865ZM69.4392 26.51H66.1842V24.575H72.5892V26.3L69.3492 29.87V29.9H72.8292V31.835H65.9442V30.26L69.4392 26.54V26.51ZM76.8293 24.485C77.7893 24.485 78.5643 24.585 79.1543 24.785C79.7443 24.985 80.1743 25.355 80.4443 25.895C80.7243 26.425 80.8643 27.195 80.8643 28.205V31.865H78.6893L78.6143 31.175H78.5693C78.3793 31.425 78.0843 31.625 77.6843 31.775C77.2843 31.925 76.7643 32 76.1243 32C74.3943 32 73.5293 31.19 73.5293 29.57C73.5293 28.88 73.7543 28.34 74.2043 27.95C74.6643 27.55 75.3843 27.35 76.3643 27.35H78.5843C78.5143 26.93 78.3343 26.65 78.0443 26.51C77.7543 26.36 77.2593 26.285 76.5593 26.285C76.1193 26.285 75.6843 26.32 75.2543 26.39C74.8343 26.45 74.4643 26.52 74.1443 26.6L74.0993 26.57L74.1143 24.83C74.3143 24.77 74.5693 24.715 74.8793 24.665C75.1893 24.605 75.5143 24.56 75.8543 24.53C76.2043 24.5 76.5293 24.485 76.8293 24.485ZM76.7393 30.23C77.3593 30.23 77.8243 30.155 78.1343 30.005C78.4443 29.845 78.6043 29.595 78.6143 29.255V28.88H76.9193C76.4793 28.88 76.1693 28.945 75.9893 29.075C75.8193 29.195 75.7343 29.36 75.7343 29.57C75.7343 29.82 75.8243 29.995 76.0043 30.095C76.1843 30.185 76.4293 30.23 76.7393 30.23ZM86.9932 31.865L86.9032 30.8H86.8432C86.6732 31.2 86.4282 31.5 86.1082 31.7C85.7982 31.9 85.3432 32 84.7432 32C83.7732 32 83.0632 31.72 82.6132 31.16C82.1632 30.59 81.9282 29.735 81.9082 28.595C81.8982 27.575 82.0032 26.765 82.2232 26.165C82.4432 25.565 82.7882 25.135 83.2582 24.875C83.7282 24.615 84.3282 24.485 85.0582 24.485C85.4382 24.485 85.7832 24.52 86.0932 24.59C86.4032 24.65 86.6532 24.735 86.8432 24.845L86.8732 24.83V21.77H89.2732V31.865H86.9932ZM85.5232 29.96C85.9232 29.96 86.2482 29.835 86.4982 29.585C86.7482 29.335 86.8732 28.92 86.8732 28.34V26.765C86.5032 26.615 86.0682 26.54 85.5682 26.54C85.0982 26.54 84.7582 26.655 84.5482 26.885C84.3482 27.105 84.2482 27.555 84.2482 28.235C84.2482 28.815 84.3282 29.25 84.4882 29.54C84.6582 29.82 85.0032 29.96 85.5232 29.96ZM93.8508 24.485C94.8108 24.485 95.5858 24.585 96.1758 24.785C96.7658 24.985 97.1958 25.355 97.4658 25.895C97.7458 26.425 97.8858 27.195 97.8858 28.205V31.865H95.7108L95.6358 31.175H95.5908C95.4008 31.425 95.1058 31.625 94.7058 31.775C94.3058 31.925 93.7858 32 93.1458 32C91.4158 32 90.5508 31.19 90.5508 29.57C90.5508 28.88 90.7758 28.34 91.2258 27.95C91.6858 27.55 92.4058 27.35 93.3858 27.35H95.6058C95.5358 26.93 95.3558 26.65 95.0658 26.51C94.7758 26.36 94.2808 26.285 93.5808 26.285C93.1408 26.285 92.7058 26.32 92.2758 26.39C91.8558 26.45 91.4858 26.52 91.1658 26.6L91.1208 26.57L91.1358 24.83C91.3358 24.77 91.5908 24.715 91.9008 24.665C92.2108 24.605 92.5358 24.56 92.8758 24.53C93.2258 24.5 93.5508 24.485 93.8508 24.485ZM93.7608 30.23C94.3808 30.23 94.8458 30.155 95.1558 30.005C95.4658 29.845 95.6258 29.595 95.6358 29.255V28.88H93.9408C93.5008 28.88 93.1908 28.945 93.0108 29.075C92.8408 29.195 92.7558 29.36 92.7558 29.57C92.7558 29.82 92.8458 29.995 93.0258 30.095C93.2058 30.185 93.4508 30.23 93.7608 30.23Z" fill="white"/>
</svg>
