<svg width="211" height="59" viewBox="0 0 211 59" fill="none" xmlns="http://www.w3.org/2000/svg">
<path d="M0.189578 33.965C1.57981 34.4321 3.09643 34.8058 4.73944 35.0861C6.41404 35.3353 8.07284 35.4599 9.71585 35.4599C11.9592 35.4599 13.618 35.3664 14.6923 35.1796C15.7981 34.9616 16.5248 34.6346 16.8724 34.1985C17.22 33.7625 17.3937 33.2019 17.3937 32.5168C17.3937 31.9251 17.2674 31.4579 17.0146 31.1153C16.7618 30.7728 16.2721 30.508 15.5454 30.3212C14.8186 30.1032 13.7444 29.9319 12.3225 29.8073L9.19451 29.527C6.85639 29.309 5.00801 28.8263 3.64937 28.0788C2.32233 27.3314 1.37444 26.3348 0.805705 25.0891C0.268568 23.8122 0 22.2861 0 20.511C0 18.3932 0.426549 16.6803 1.27965 15.3723C2.16434 14.0642 3.58618 13.1144 5.54514 12.5226C7.50411 11.8998 10.1108 11.5883 13.3652 11.5883C17.5991 11.5883 21.0905 12.1333 23.8394 13.2234L23.6972 19.5766L23.555 19.7635C20.427 18.6735 17.1568 18.1285 13.7444 18.1285C12.1014 18.1285 10.8375 18.2219 9.95282 18.4088C9.06813 18.5645 8.452 18.8292 8.10444 19.2029C7.75688 19.5766 7.5831 20.1061 7.5831 20.7912C7.5831 21.4764 7.69369 21.9903 7.91486 22.3328C8.16763 22.6754 8.65738 22.9401 9.38409 23.127C10.1108 23.2827 11.1693 23.4384 12.5595 23.5942L15.5454 23.9212C18.0731 24.2015 20.0162 24.6998 21.3749 25.4161C22.7335 26.1324 23.6656 27.0978 24.1711 28.3124C24.7083 29.4959 24.9768 30.944 24.9768 32.6569C24.9768 34.7436 24.5187 36.4876 23.6024 37.8891C22.7177 39.2594 21.2643 40.2871 19.2421 40.9723C17.22 41.6574 14.5185 42 11.1377 42C8.92594 42 6.93538 41.891 5.16599 41.673C3.3966 41.4238 1.6746 41.0968 0 40.692V34.1051L0.189578 33.965Z" fill="black"/>
<path d="M37.3194 41.5796H29.7363V10.1869H37.3194V22.9869H37.4616C37.9039 21.5854 38.7096 20.511 39.8787 19.7635C41.0793 18.9849 42.6433 18.5956 44.5707 18.5956C46.4033 18.5956 47.9041 18.8915 49.0732 19.4832C50.2738 20.0749 51.1585 21.1182 51.7273 22.6131C52.3276 24.0769 52.6278 26.1479 52.6278 28.8263V41.5796H45.0447L44.9973 30.2745C44.9973 28.5304 44.7287 27.2847 44.1916 26.5372C43.6544 25.7898 42.6434 25.4161 41.1583 25.4161C39.8313 25.4161 38.8676 25.7586 38.2673 26.4438C37.6669 27.129 37.351 28.2813 37.3194 29.9007V41.5796Z" fill="black"/>
<path d="M64.9407 10.3737C65.0355 11.4949 65.0829 12.4292 65.0829 13.1766C65.0829 13.6127 65.0671 14.0642 65.0355 14.5314C65.0355 14.9674 65.0039 15.4657 64.9407 16.0263C64.2772 16.1509 63.6294 16.2443 62.9975 16.3066C62.3656 16.3689 61.7337 16.4 61.1017 16.4C60.5014 16.4 59.8853 16.3689 59.2534 16.3066C58.653 16.2443 58.0369 16.1509 57.405 16.0263C57.3418 15.4968 57.2944 15.0141 57.2628 14.5781C57.2312 14.1109 57.2154 13.6594 57.2154 13.2234C57.2154 12.8185 57.2312 12.3825 57.2628 11.9153C57.2944 11.4482 57.3418 10.9343 57.405 10.3737C58.0369 10.218 58.6688 10.1246 59.3008 10.0934C59.9643 10.0311 60.612 10 61.2439 10C61.8442 10 62.4446 10.0311 63.0449 10.0934C63.6768 10.1246 64.3088 10.218 64.9407 10.3737ZM64.9407 41.5796H57.3576V18.8292H64.9407V41.5796Z" fill="black"/>
<path d="M98.8617 18.5956C101.2 18.5956 103.048 19.3586 104.407 20.8847C105.797 22.4107 106.492 25.0579 106.492 28.8263V41.5796H98.9091L98.8617 29.7606C98.8617 28.2346 98.6248 27.129 98.1508 26.4438C97.7085 25.7586 96.8238 25.4161 95.4967 25.4161C94.1697 25.4161 93.2692 25.7586 92.7952 26.4438C92.3529 27.129 92.1317 28.2346 92.1317 29.7606V41.5796H84.5486L84.5012 29.7606C84.5012 28.2346 84.2643 27.129 83.7903 26.4438C83.348 25.7586 82.4633 25.4161 81.1362 25.4161C79.8092 25.4161 78.9087 25.7586 78.4348 26.4438C77.9924 27.129 77.7712 28.2346 77.7712 29.7606V41.5796H70.1881V18.8292H77.3921L77.7712 22.9869H77.9134C78.3242 21.6165 79.0351 20.5421 80.0462 19.7635C81.0888 18.9849 82.5581 18.5956 84.4538 18.5956C86.3496 18.5956 87.8346 18.9849 88.9089 19.7635C90.0148 20.5421 90.7257 21.6165 91.0417 22.9869H91.1839C91.5946 21.5854 92.3845 20.511 93.5536 19.7635C94.7542 18.9849 96.5236 18.5956 98.8617 18.5956Z" fill="black"/>
<path d="M118.861 10.3737C118.956 11.4949 119.003 12.4292 119.003 13.1766C119.003 13.6127 118.987 14.0642 118.956 14.5314C118.956 14.9674 118.924 15.4657 118.861 16.0263C118.198 16.1509 117.55 16.2443 116.918 16.3066C116.286 16.3689 115.654 16.4 115.022 16.4C114.422 16.4 113.806 16.3689 113.174 16.3066C112.573 16.2443 111.957 16.1509 111.325 16.0263C111.262 15.4968 111.215 15.0141 111.183 14.5781C111.152 14.1109 111.136 13.6594 111.136 13.2234C111.136 12.8185 111.152 12.3825 111.183 11.9153C111.215 11.4482 111.262 10.9343 111.325 10.3737C111.957 10.218 112.589 10.1246 113.221 10.0934C113.885 10.0311 114.532 10 115.164 10C115.765 10 116.365 10.0311 116.965 10.0934C117.597 10.1246 118.229 10.218 118.861 10.3737ZM118.861 41.5796H111.278V18.8292H118.861V41.5796Z" fill="black"/>
<path d="M131.692 41.5796H124.109V18.8292H131.312L131.692 22.9869H131.834C132.276 21.5854 133.066 20.511 134.204 19.7635C135.341 18.9849 136.921 18.5956 138.943 18.5956C141.692 18.5956 143.714 19.3586 145.009 20.8847C146.336 22.4107 147 25.0579 147 28.8263V41.5796H139.417L139.369 30.2745C139.369 28.5304 139.101 27.2847 138.564 26.5372C138.027 25.7898 137.016 25.4161 135.531 25.4161C134.14 25.4161 133.161 25.7586 132.592 26.4438C132.023 27.0978 131.723 28.2346 131.692 29.854V41.5796Z" fill="black"/>
<rect x="152" width="59" height="59" rx="29.5" fill="#DA4036"/>
<path d="M188.35 43.35V43.485H180.7C180.49 42.765 180.235 41.94 179.935 41.01C179.665 40.08 179.365 39.09 179.035 38.04H169.315C168.715 40.14 168.16 41.955 167.65 43.485H160V43.395L169.225 15H179.125L188.35 43.35ZM174.085 20.13C173.785 21.66 173.35 23.52 172.78 25.71C172.21 27.9 171.61 30.135 170.98 32.415H177.415C176.755 30.135 176.14 27.9 175.57 25.71C175 23.52 174.565 21.66 174.265 20.13H174.085Z" fill="white"/>
<path d="M198.718 43.485H191.518V15H198.718V43.485Z" fill="white"/>
</svg>
